<?xml version="1.0" encoding="UTF-8"?>
<svg xmlns="http://www.w3.org/2000/svg" version="1.1" width="1920" height="1137" style="background-color:transparent;">
  <path d="M0 0 C633.6 0 1267.2 0 1920 0 C1920 375.21 1920 750.42 1920 1137 C1286.4 1137 652.8 1137 0 1137 C0 761.79 0 386.58 0 0 Z " fill="#FDBF0B" transform="translate(0,0)"/>
  <path d="M0 0 C633.6 0 1267.2 0 1920 0 C1920 375.21 1920 750.42 1920 1137 C1286.4 1137 652.8 1137 0 1137 C0 761.79 0 386.58 0 0 Z M833 23 C831.47880554 23.11245056 831.47880554 23.11245056 829.92687988 23.22717285 C791.17120392 26.09882185 752.41416625 30.08587656 714 36 C711.45055642 36.3830494 708.90107565 36.76585138 706.3515625 37.1484375 C654.81536445 44.93693237 603.11225391 54.82881481 553.00390625 69.2890625 C547.76741016 70.79798547 542.50604165 72.19326941 537.23413086 73.57250977 C526.5842229 76.36689797 516.10987134 79.46609457 505.70483398 83.07202148 C500.10007746 85.00830195 494.4690802 86.75853305 488.7734375 88.40234375 C480.47554327 90.80759635 472.32489801 93.53950644 464.1875 96.4375 C463.11674225 96.81708862 463.11674225 96.81708862 462.02435303 97.2043457 C431.62474846 107.99967168 401.59473761 119.86805062 372.32885742 133.45507812 C368.9297057 135.03262357 365.52382507 136.59494412 362.1171875 138.15625 C337.13023643 149.66373725 312.8218332 162.22357324 289 176 C288.23010742 176.4429541 287.46021484 176.8859082 286.66699219 177.34228516 C271.08986588 186.31688891 255.86507762 195.88941848 241 206 C240.1342334 206.58418701 240.1342334 206.58418701 239.25097656 207.18017578 C224.41460683 217.19647035 209.84361495 227.64275729 196 239 C194.78063966 239.98393079 193.56051931 240.96692011 192.33984375 241.94921875 C185.76811057 247.24612493 179.23503422 252.58521041 172.8125 258.0625 C172.06758301 258.69430176 172.06758301 258.69430176 171.30761719 259.33886719 C160.31769443 268.77973416 149.93566478 278.87774159 139.69628906 289.1184082 C137.74302472 291.06946741 135.78184746 293.01233836 133.8203125 294.95507812 C126.74253007 302.00160097 120.19286811 309.1561915 114 317 C112.53451826 318.72595773 111.04579562 320.42854228 109.55249023 322.13037109 C65.33772299 372.5688947 34.26998359 435.89918549 23 502 C22.83338867 502.95777344 22.66677734 503.91554688 22.49511719 504.90234375 C17.15351417 537.15102783 18.04495154 571.92972736 24 604 C24.29753174 605.700354 24.29753174 605.700354 24.60107422 607.43505859 C30.67940561 641.61781485 42.97526519 675.42684788 59.77636719 705.77490234 C60.97168002 707.94850194 62.13367666 710.13699685 63.2890625 712.33203125 C73.40032818 731.32429454 85.80971829 749.03187454 99 766 C99.95594871 767.24462307 100.91167751 768.48941508 101.8671875 769.734375 C106.68164776 775.97040504 111.6374056 781.98889115 116.97265625 787.79296875 C118.75041414 789.72829285 120.47576252 791.69403016 122.1875 793.6875 C130.56773812 803.27864408 139.38831394 812.47840391 148.375 821.5 C149.01622803 822.14582031 149.65745605 822.79164063 150.31811523 823.45703125 C154.13725405 827.26385503 158.07530972 830.87709886 162.15625 834.40136719 C164.58791061 836.50975088 166.94855863 838.69120346 169.3125 840.875 C174.71478931 845.79560371 180.30028913 850.42982766 186 855 C187.15521193 855.93587212 188.31014633 856.87208689 189.46484375 857.80859375 C229.07047772 889.83218665 272.10413569 917.03998929 317 941 C317.88913086 941.47614746 318.77826172 941.95229492 319.69433594 942.44287109 C376.24819273 972.63964873 436.07348539 997.22563049 497.31884766 1016.16650391 C499.88796338 1016.96517091 502.45068963 1017.78128209 505.01171875 1018.60546875 C525.23595618 1025.10552711 545.72818602 1030.64234626 566.27441406 1036.02392578 C568.6234403 1036.63935218 570.97183886 1037.25718419 573.31933594 1037.87841797 C623.46804258 1051.09859871 674.81986643 1060.41894937 726.17822266 1067.47363281 C730.06214696 1068.0085594 733.94312633 1068.56212299 737.82421875 1069.1171875 C750.90974124 1070.95811338 763.94818516 1072.49365754 777.140625 1073.31713867 C782.04523606 1073.63339538 786.82636182 1074.09979074 791.671875 1074.9296875 C802.42844464 1076.66125228 813.3286873 1077.22989118 824.1875 1078 C825.40325714 1078.08648804 826.61901428 1078.17297607 827.87161255 1078.26208496 C867.0648043 1081.0229996 906.09438944 1082.17554077 945.375 1082.1875 C946.23553356 1082.18808914 947.09606712 1082.18867828 947.98267746 1082.18928528 C983.93047011 1082.54778837 983.93047011 1082.54778837 1019.75579834 1080.21655273 C1023.06096705 1079.8976227 1026.36253766 1079.83868792 1029.68066406 1079.76049805 C1075.03630302 1078.63600915 1120.66041605 1073.19493375 1165.53027344 1066.64990234 C1169.34812524 1066.09308418 1173.16760214 1065.54837962 1176.9876709 1065.00700378 C1180.05200337 1064.57188509 1183.1156297 1064.13194596 1186.17907715 1063.69064331 C1187.61093442 1063.48482726 1189.04297455 1063.28027806 1190.47521973 1063.07717896 C1199.75591682 1061.75702468 1208.86163415 1060.08263127 1218 1058 C1218.01458252 1056.99549805 1218.02916504 1055.99099609 1218.04418945 1054.95605469 C1219.11001517 986.65665204 1232.67176019 922.29322214 1268 863 C1268.49612793 862.16662109 1268.99225586 861.33324219 1269.50341797 860.47460938 C1283.68702058 836.81344404 1299.99208291 815.04932683 1317.875 794.0625 C1318.54281494 793.27564819 1318.54281494 793.27564819 1319.22412109 792.47290039 C1327.89082004 782.36175162 1337.06784807 772.76615622 1346.4987793 763.37084961 C1348.20023778 761.67480274 1349.89621263 759.97340179 1351.59179688 758.27148438 C1357.22709155 752.63275445 1362.92136841 747.16460641 1369 742 C1370.60768373 740.54554483 1372.21239715 739.08779105 1373.8125 737.625 C1379.06175883 732.89428498 1384.49558996 728.42916306 1390 724 C1391.12135302 723.08625558 1392.24243511 722.17217861 1393.36328125 721.2578125 C1403.32844431 713.16511488 1413.59942104 705.522198 1424 698 C1424.70350586 697.48969238 1425.40701172 696.97938477 1426.13183594 696.45361328 C1450.10376394 679.1176911 1475.30868313 663.63477774 1501 649 C1502.04945801 648.39986084 1502.04945801 648.39986084 1503.12011719 647.78759766 C1547.25166221 622.62487461 1593.55727481 602.0459484 1640.91320801 583.80474854 C1642.81535641 583.07120578 1644.71587358 582.33343664 1646.61621094 581.59521484 C1675.70863109 570.32958413 1705.58083052 560.70217579 1735.71142578 552.62890625 C1738.7704741 551.78827168 1741.79088319 550.84071024 1744.8125 549.875 C1750.80093296 547.98856334 1756.86799699 546.48173005 1762.9699707 545.01318359 C1767.73199891 543.85662754 1772.45535394 542.59932961 1777.17015076 541.26524353 C1787.42342768 538.36728432 1797.73655507 535.86227119 1808.125 533.5 C1809.84033649 533.10735998 1811.55566847 532.71470025 1813.27099609 532.32202148 C1849.76746675 523.99331978 1849.76746675 523.99331978 1865 522 C1865.22874565 514.79842224 1864.61042038 508.02843392 1863.375 500.9375 C1863.19533691 499.89875732 1863.01567383 498.86001465 1862.83056641 497.78979492 C1854.58575236 451.62507707 1836.84880737 407.17293488 1811 368 C1810.21680106 366.78817823 1809.43425143 365.57593658 1808.65234375 364.36328125 C1799.47486851 350.24755766 1789.53733733 336.60350318 1778.4921875 323.890625 C1776.19469174 321.22581801 1773.99903788 318.50586283 1771.8125 315.75 C1762.01441331 303.75728014 1750.91875161 292.83410603 1740 281.875 C1739.12827148 280.99859863 1738.25654297 280.12219727 1737.35839844 279.21923828 C1732.95159202 274.8234193 1728.48193826 270.57126135 1723.76025391 266.51513672 C1721.35062283 264.44104927 1719.0226807 262.28222758 1716.6875 260.125 C1711.28530666 255.20382388 1705.68779478 250.58483838 1700 246 C1698.71138643 244.94374831 1697.42368258 243.88638614 1696.13671875 242.828125 C1694.75783996 241.69788316 1693.3789338 240.56767473 1692 239.4375 C1691.37198486 238.91953857 1690.74396973 238.40157715 1690.09692383 237.86791992 C1630.33057453 189.05988093 1558.49635518 150.47686241 1487.07226562 121.84130859 C1484.45602555 120.77915458 1481.85142307 119.69019994 1479.24609375 118.6015625 C1451.29031157 106.9357137 1423.02444371 96.42130549 1394.15234375 87.28125 C1388.92532088 85.62560068 1383.7279832 83.90233624 1378.54248047 82.12158203 C1367.69943473 78.40450182 1356.72689147 75.47993921 1345.61767578 72.67333984 C1341.9777722 71.73705425 1338.36489115 70.71522475 1334.75 69.6875 C1331.50287361 68.7810833 1328.25204252 67.88860685 1325 67 C1323.89495117 66.69755371 1322.78990234 66.39510742 1321.65136719 66.08349609 C1235.50874144 42.72259247 1145.66954986 28.98224791 1056.63922119 23.17578125 C1053.83872478 22.98925851 1051.03929385 22.79008045 1048.23974609 22.58984375 C976.91159575 17.57638733 904.29964403 17.6044283 833 23 Z " fill="#040302" transform="translate(0,0)"/>
  <path d="M0 0 C0.33 0 0.66 0 1 0 C1 195.69 1 391.38 1 593 C-287.42 593 -575.84 593 -873 593 C-873 592.67 -873 592.34 -873 592 C-872.02569534 591.95694733 -872.02569534 591.95694733 -871.03170776 591.9130249 C-836.27706223 590.36750152 -801.62247476 588.50444479 -767 585 C-766.07137146 584.90654297 -765.14274292 584.81308594 -764.18597412 584.71679688 C-742.52872166 582.52794537 -720.9301416 579.9740746 -699.375 576.9375 C-698.52715942 576.81957092 -697.67931885 576.70164185 -696.80578613 576.58013916 C-673.80442599 573.57388813 -673.80442599 573.57388813 -651.75 566.75 C-651.02022949 566.45335449 -650.29045898 566.15670898 -649.53857422 565.85107422 C-637.23609553 560.72659916 -626.38239773 554.39526226 -616 546 C-615.37448242 545.49774902 -614.74896484 544.99549805 -614.10449219 544.47802734 C-609.99655629 541.17597824 -605.91101704 537.84746854 -601.83642578 534.50439453 C-600.2374815 533.19454414 -598.63289606 531.8915859 -597.02734375 530.58984375 C-591.9270294 526.4510025 -586.91284134 522.22479761 -581.9375 517.9375 C-577.30104234 513.94290835 -572.61274261 510.0436541 -567.8125 506.24609375 C-558.25147456 498.6105526 -548.85887299 490.76135147 -539.53637695 482.8371582 C-534.41396132 478.48830227 -529.21301851 474.23941064 -524 470 C-520.33004957 467.00400651 -516.66372397 464.00360329 -513 461 C-512.36255859 460.47744629 -511.72511719 459.95489258 -511.06835938 459.41650391 C-503.17775767 452.94391802 -495.312192 446.44680334 -487.53613281 439.83691406 C-482.41374447 435.488203 -477.21293019 431.23933881 -472 427 C-468.33004957 424.00400651 -464.66372397 421.00360329 -461 418 C-460.36255859 417.47744629 -459.72511719 416.95489258 -459.06835938 416.41650391 C-451.81863923 410.46962709 -444.57614198 404.51756862 -437.4375 398.4375 C-432.01320433 393.81756108 -426.49290015 389.32371911 -420.95214844 384.84448242 C-416.10873451 380.92131714 -411.33265616 376.92707559 -406.58642578 372.88720703 C-401.44956512 368.51871443 -396.23140913 364.25436654 -391 360 C-387.33004957 357.00400651 -383.66372397 354.00360329 -380 351 C-379.36255859 350.47744629 -378.72511719 349.95489258 -378.06835938 349.41650391 C-370.77291946 343.4321236 -363.4880424 337.44042876 -356.3125 331.3125 C-351.32556198 327.0537811 -346.19993682 323.00260343 -341.01879883 318.98364258 C-336.69810842 315.60849893 -332.64488152 312.01318349 -328.609375 308.30078125 C-325.58270861 305.63205894 -322.43965291 303.15682406 -319.25 300.6875 C-313.7066144 296.39521261 -308.34805383 291.93396528 -303.04663086 287.34716797 C-297.78103666 282.79398205 -292.40730509 278.38386583 -287 274 C-283.32953962 271.00463202 -279.66372344 268.00360286 -276 265 C-275.36255859 264.47744629 -274.72511719 263.95489258 -274.06835938 263.41650391 C-266.77291946 257.4321236 -259.4880424 251.44042876 -252.3125 245.3125 C-247.32913993 241.05683658 -242.20759141 237.00803241 -237.02978516 232.99243164 C-232.59558647 229.52903017 -228.42080805 225.84284549 -224.27734375 222.03515625 C-221.47715113 219.53275427 -218.52968153 217.28088594 -215.54296875 215.0078125 C-212.30269225 212.44943751 -209.18556737 209.7618388 -206.0625 207.0625 C-201.25552888 202.91076292 -196.39525533 198.85683076 -191.4140625 194.9140625 C-184.10260128 189.11694923 -176.95220806 183.13056552 -169.84106445 177.09106445 C-164.61572033 172.65948274 -159.31558171 168.32281865 -154 164 C-150.33004957 161.00400651 -146.66372397 158.00360329 -143 155 C-142.36255859 154.47744629 -141.72511719 153.95489258 -141.06835938 153.41650391 C-133.17775767 146.94391802 -125.312192 140.44680334 -117.53613281 133.83691406 C-111.53884721 128.74544881 -105.43245907 123.79012755 -99.328125 118.828125 C-94.40121043 114.81254723 -89.52211906 110.75059003 -84.6875 106.625 C-80.22915853 102.8241098 -75.69081306 99.15412258 -71.0625 95.5625 C-65.58361782 91.30809386 -60.28619912 86.88132521 -55.04150391 82.34228516 C-51.54822353 79.32040612 -48.02187154 76.3517499 -44.4375 73.4375 C-42.62459358 71.95883149 -40.81211411 70.47963939 -39 69 C-38.46987305 68.5683252 -37.93974609 68.13665039 -37.39355469 67.69189453 C-22.35251498 55.39630287 -12.01895255 42.40465803 -5 24 C-4.70351562 23.35160156 -4.40703125 22.70320312 -4.1015625 22.03515625 C-1.05593054 15.14479088 -0.76484917 7.41453783 0 0 Z " fill="#FEFEFE" transform="translate(1919,544)"/>
  <path d="M0 0 C0.33 0 0.66 0 1 0 C1.10546143 0.88558594 1.21092285 1.77117188 1.31958008 2.68359375 C3.93114011 25.45745388 3.93114011 25.45745388 8 48 C8.28014326 49.43746194 8.56007819 50.8749645 8.83984375 52.3125 C14.5173236 79.87748709 25.4339971 106.92174808 38 132 C38.4935498 132.99660645 38.98709961 133.99321289 39.49560547 135.02001953 C46.22099144 148.53425916 53.63483857 161.43679285 62 174 C62.4626123 174.69673828 62.92522461 175.39347656 63.40185547 176.11132812 C72.86070944 190.28114131 83.01435609 203.97521482 94 217 C94.45342773 217.53834473 94.90685547 218.07668945 95.37402344 218.63134766 C101.91449762 226.37986534 108.59822541 233.96757959 115.5078125 241.39013672 C117.12866908 243.13881609 118.73636127 244.89909309 120.34375 246.66015625 C127.40374573 254.35892756 134.68379875 261.65155022 142.46386719 268.62109375 C143.97605488 269.97850572 145.47792328 271.34640619 146.9765625 272.71875 C161.17346069 285.7032409 175.86579822 298.13351258 191.25634766 309.68652344 C192.45000511 310.58569413 193.63960631 311.4902679 194.82568359 312.39941406 C206.28227199 321.17750121 218.18306518 329.24765861 230.1875 337.25 C230.94773468 337.75742737 231.70796936 338.26485474 232.49124146 338.78765869 C240.45968992 344.09924187 248.46690548 349.32431639 256.61328125 354.359375 C261.20463713 357.19892897 265.63147244 360.0937339 269.89208984 363.41699219 C275.18725942 367.39358235 280.79632192 370.96367363 286.3125 374.625 C286.9815033 375.06952515 287.65050659 375.51405029 288.33978271 375.9720459 C307.1354358 388.45389778 326.22127071 400.14690613 345.87060547 411.23193359 C348.513916 412.72536899 351.15147372 414.22796495 353.78515625 415.73828125 C366.4302042 422.96982795 379.45447246 429.34633958 392.65161133 435.50390625 C396.96092258 437.52346096 401.22445445 439.61541511 405.46759033 441.77107239 C414.74889319 446.47386976 424.18892506 450.71314518 433.75 454.8125 C434.55092072 455.15727386 435.35184143 455.50204773 436.17703247 455.85726929 C470.19289384 470.48825842 505.14097669 484.35250063 540.640625 494.984375 C543.92108926 495.97614327 547.18445134 497.01200964 550.44824219 498.05688477 C561.68801762 501.64910956 573.00190667 504.96765692 584.34033203 508.23339844 C586.63290495 508.89419144 588.92418248 509.55918226 591.21484375 510.2265625 C592.38144531 510.56429688 593.54804687 510.90203125 594.75 511.25 C595.69359375 511.52328125 596.6371875 511.7965625 597.609375 512.078125 C602.71926935 513.46745111 607.85982274 514.7279828 613 516 C614.30097303 516.32377665 615.6019158 516.6476749 616.90283203 516.97167969 C638.84806315 522.42917266 660.83533569 527.51445894 683 532 C684.22154785 532.24814453 685.4430957 532.49628906 686.70166016 532.75195312 C695.03929958 534.43405926 703.39145397 536.02981861 711.75415039 537.58135986 C714.10582832 538.01972705 716.45626283 538.46438567 718.80664062 538.90966797 C783.83870575 551.17645327 850.11522194 558.01928321 916.21044922 560.83691406 C920.82638352 561.03556399 925.44078913 561.26072109 930.05541992 561.48730469 C933.70329717 561.66545022 937.35156261 561.83376424 941 562 C941 562.33 941 562.66 941 563 C630.47 563 319.94 563 0 563 C0 377.21 0 191.42 0 0 Z " fill="#FEFEFE" transform="translate(0,574)"/>
  <path d="M0 0 C305.25 0 610.5 0 925 0 C925 173.91 925 347.82 925 527 C924.67 527 924.34 527 924 527 C923.84217041 526.0313501 923.68434082 525.0627002 923.52172852 524.06469727 C921.8094177 514.02787774 919.23125943 504.56170439 915.9375 494.9375 C915.69800629 494.22788116 915.45851257 493.51826233 915.21176147 492.78713989 C909.14762901 474.85540369 901.6956896 457.60436666 892.94580078 440.81787109 C892.01360288 439.02614533 891.09805726 437.22660885 890.18359375 435.42578125 C875.73163847 407.30481224 856.99140889 381.63022421 836.44873047 357.69140625 C834.89912428 355.88222666 833.35738279 354.06653392 831.81640625 352.25 C830.75278074 350.99984975 829.68898268 349.74984628 828.625 348.5 C827.89325562 347.63665039 827.89325562 347.63665039 827.14672852 346.75585938 C825.00091015 344.24447353 822.85463195 341.85802311 820.48828125 339.546875 C817.50292002 336.49121484 815.06958753 333.1994198 812.5625 329.75 C803.36184736 317.29600586 793.50504672 305.37583542 783 294 C782.21753906 293.12601562 781.43507813 292.25203125 780.62890625 291.3515625 C773.58768184 283.53061403 766.18087231 276.07289591 758.75 268.625 C758.23057831 268.10299011 757.71115662 267.58098022 757.17599487 267.04315186 C751.83045441 261.67663112 746.46301236 256.38531886 740.703125 251.45800781 C738.28588442 249.38866138 735.96114486 247.22253548 733.625 245.0625 C729.47838335 241.28459755 725.24496781 237.70304168 720.83203125 234.2421875 C718.68244835 232.54031083 716.56030268 230.81884192 714.44921875 229.0703125 C705.32058566 221.52546445 695.92894399 214.47942099 686.2734375 207.625 C684.02361363 206.01687847 681.79081219 204.38777009 679.5625 202.75 C658.66878083 187.41887942 636.5559329 173.93370112 614.375 160.5625 C613.59447266 160.09062256 612.81394531 159.61874512 612.00976562 159.13256836 C600.0591446 151.96549562 587.64527031 145.66482191 575.25 139.3125 C574.38284363 138.86802521 573.51568726 138.42355042 572.62225342 137.96560669 C514.91524665 108.41648562 454.09869575 83.10341879 391.81347656 64.83740234 C387.73986776 63.62493461 383.6868828 62.3484378 379.63085938 61.07861328 C358.17088569 54.38122197 336.56840279 48.39794017 314.62109375 43.51953125 C310.07302945 42.50003808 305.55418026 41.39059085 301.03727722 40.24299622 C289.95253912 37.42799896 278.82328579 34.94363021 267.625 32.625 C266.70679474 32.43401733 265.78858948 32.24303467 264.84255981 32.04626465 C234.3731827 25.71926514 203.84340176 20.16121467 173 16 C172.02464294 15.86744812 171.04928589 15.73489624 170.04437256 15.59832764 C113.45083208 7.91433114 56.99875885 3.93802856 0 1 C0 0.67 0 0.34 0 0 Z " fill="#FEFEFE" transform="translate(995,0)"/>
  <path d="M0 0 C294.36 0 588.72 0 892 0 C892 0.33 892 0.66 892 1 C890.84330811 1.03963867 889.68661621 1.07927734 888.49487305 1.12011719 C788.30403322 4.63531238 687.97279388 16.40931426 578 43 C576.09806885 43.4650293 576.09806885 43.4650293 574.15771484 43.93945312 C568.32646082 45.37124558 562.50193574 46.82724225 556.68457031 48.31445312 C554.82265608 48.78992195 552.95996863 49.26236917 551.09667969 49.73242188 C540.23843719 52.47278462 529.46038243 55.33273391 518.81518555 58.8203125 C514.35446197 60.28043078 509.87313029 61.61603973 505.35546875 62.890625 C497.97756137 64.98278626 490.67185712 67.26702675 483.375 69.625 C482.71247223 69.83898437 482.04994446 70.05296875 481.36734009 70.2734375 C459.32675839 77.40730916 437.62012949 85.40242853 416.03955078 93.81982422 C411.66980726 95.51647805 407.28901147 97.18410807 402.90795898 98.85131836 C399.28281392 100.28329783 395.7630603 101.89483794 392.23046875 103.5390625 C389.84742295 104.61676399 387.46601647 105.64859738 385.05078125 106.6484375 C358.66955526 117.61371849 332.68087394 130.05023684 307.54492188 143.62597656 C304.90561895 145.05095708 302.25783166 146.45930368 299.609375 147.8671875 C262.61790524 167.65731053 227.37740188 190.61299947 194 216 C193.43861328 216.42490723 192.87722656 216.84981445 192.29882812 217.28759766 C180.23649594 226.42123034 168.3141329 235.79537818 157.15625 246.0234375 C155.12985179 247.8809692 153.07481371 249.69688809 151 251.5 C142.26426629 259.130047 133.83098771 266.98252279 125.6315918 275.18310547 C123.94142654 276.87107855 122.24339166 278.55085724 120.54492188 280.23046875 C114.61336199 286.13216753 109.07132144 292.12466491 103.85717773 298.67724609 C101.70265186 301.37189039 99.43153034 303.86857423 97.0625 306.375 C66.37879947 339.84383642 41.80933533 382.07449378 25 424 C24.58959473 425.00788574 24.58959473 425.00788574 24.17089844 426.03613281 C10.89008673 458.8603893 4.27309109 492.89050742 1 528 C0.67 528 0.34 528 0 528 C0 353.76 0 179.52 0 0 Z " fill="#FEFEFE" transform="translate(0,0)"/>
  <path d="M0 0 C4.97440084 3.69891345 8.59888502 8.02538274 12.45703125 12.859375 C14.66925279 15.62095183 16.97238087 18.29143222 19.30126953 20.95483398 C41.47491424 46.3775087 60.63446528 75.61721022 75.08935547 106.09326172 C76.01026693 108.02149724 76.95781421 109.93477479 77.91015625 111.84765625 C94.05681763 144.67731917 111.86536004 186.70421156 99.5546875 223.58203125 C90.71028414 248.08919933 74.85801844 264.06170654 55 280 C53.2900148 281.3938092 51.58171712 282.78969095 49.875 284.1875 C48.52148438 285.29544922 48.52148438 285.29544922 47.140625 286.42578125 C46.09365294 287.28373574 45.04678737 288.14182018 44 289 C43.36255859 289.52255371 42.72511719 290.04510742 42.06835938 290.58349609 C34.77291502 296.56788004 27.48819267 302.55974264 20.3125 308.6875 C16.00210909 312.36684112 11.60435355 315.90375068 7.125 319.375 C1.38147669 323.82943924 -4.12732951 328.5092816 -9.59619141 333.29541016 C-14.96414848 337.99009328 -20.45354774 342.51759522 -26 347 C-27.70940799 348.39451705 -29.41770873 349.79039228 -31.125 351.1875 C-32.02476563 351.92355469 -32.92453125 352.65960937 -33.8515625 353.41796875 C-38.48718281 357.21613765 -43.11022348 361.02962913 -47.73413086 364.84204102 C-51.70747086 368.11693716 -55.69107568 371.37827419 -59.6875 374.625 C-63.87058892 378.03885828 -67.97305069 381.5378102 -72.0625 385.0625 C-76.8289384 389.17014669 -81.65147243 393.1801557 -86.5859375 397.0859375 C-93.92518724 402.90508374 -101.09941635 408.91668408 -108.23364258 414.98364258 C-112.23062371 418.37327712 -116.30283059 421.6549176 -120.41015625 424.91015625 C-123.46081879 427.37185226 -126.45147194 429.89811125 -129.4375 432.4375 C-136.10691559 438.10932845 -142.87822433 443.64955077 -149.671875 449.171875 C-154.59878789 453.1874514 -159.47793409 457.2493488 -164.3125 461.375 C-168.74861042 465.1578115 -173.26593162 468.80541537 -177.875 472.375 C-183.65038326 476.85223554 -189.18205906 481.56419745 -194.6796875 486.37670898 C-198.77859414 489.95951631 -202.94746532 493.4172813 -207.22265625 496.7890625 C-216.78380123 504.40032559 -226.15893961 512.25059669 -235.46801758 520.16723633 C-239.66168464 523.72898997 -243.91599539 527.21112288 -248.18359375 530.68359375 C-251.33785447 533.27787476 -254.45193827 535.91616742 -257.5625 538.5625 C-262.03219102 542.36147765 -266.55682071 546.07222115 -271.15234375 549.71875 C-280.71871658 557.38234634 -290.1339388 565.23519724 -299.47460938 573.17163086 C-305.83156639 578.56688927 -312.30315064 583.81877541 -318.78515625 589.0625 C-325.60625696 594.58493165 -332.38808489 600.14044658 -339.06591797 605.83544922 C-343.32475556 609.45618035 -347.65287501 612.98598369 -352 616.5 C-357.53033926 620.97069276 -362.99837038 625.50351151 -368.41357422 630.11279297 C-373.55043488 634.48128557 -378.76859087 638.74563346 -384 643 C-387.66995043 645.99599349 -391.33627603 648.99639671 -395 652 C-395.95616211 652.78383057 -395.95616211 652.78383057 -396.93164062 653.58349609 C-404.82381497 660.05737201 -412.69222462 666.55439345 -420.46826172 673.16748047 C-424.66685675 676.73332021 -428.92587998 680.21974609 -433.19921875 683.6953125 C-436.26775891 686.2203316 -439.29036484 688.79488551 -442.3125 691.375 C-446.77074183 695.17600065 -451.30919313 698.84588222 -455.9375 702.4375 C-461.41638218 706.69190614 -466.71380088 711.11867479 -471.95849609 715.65771484 C-476.31961004 719.43031749 -480.75635672 723.09698901 -485.234375 726.73046875 C-487.74139437 728.78778267 -490.21557248 730.87655869 -492.68139648 732.98266602 C-546.27579137 778.73163085 -604.40892242 783.09400354 -672.39801025 789.74542236 C-674.0546553 789.90750785 -675.7112019 790.070605 -677.36761475 790.23504639 C-687.68960022 791.259594 -698.01641838 792.10679512 -708.36474609 792.81707764 C-711.14208781 793.00986282 -713.91864624 793.2122844 -716.6953125 793.41455078 C-751.44905625 795.89143191 -786.15805189 796.29523704 -820.98746109 796.31052017 C-824.37603669 796.31246473 -827.7645963 796.31756911 -831.15316772 796.3230896 C-871.35134519 796.37143901 -911.38684088 795.17357615 -951.4375 791.625 C-954.01161647 791.40267135 -956.58575429 791.18058962 -959.15991211 790.95874023 C-966.4417971 790.32575343 -973.72141679 789.66982239 -981 789 C-981.97231567 788.91063171 -982.94463135 788.82126343 -983.94641113 788.72918701 C-1058.1047077 781.86427215 -1131.93503962 768.76742159 -1204 750 C-1205.53430664 749.60047119 -1205.53430664 749.60047119 -1207.09960938 749.19287109 C-1230.11268217 743.16547038 -1252.90747301 736.52578385 -1275.4296875 728.859375 C-1279.37005716 727.52530602 -1283.32823746 726.2758535 -1287.30859375 725.06640625 C-1294.32204903 722.92588228 -1301.25762426 720.58336166 -1308.1875 718.1875 C-1308.82195038 717.9683493 -1309.45640076 717.74919861 -1310.1100769 717.52340698 C-1319.67517913 714.21417917 -1329.14834388 710.74048516 -1338.54150391 706.97216797 C-1341.34512466 705.86352667 -1344.16181768 704.79249955 -1346.98046875 703.72265625 C-1394.95144285 685.39602912 -1442.14494665 662.93497265 -1486.24511719 636.63623047 C-1488.75046321 635.14820946 -1491.2666424 633.68147525 -1493.7890625 632.22265625 C-1504.92949906 625.72933312 -1515.69398059 618.68619372 -1526.4375 611.5625 C-1527.53951248 610.83522705 -1527.53951248 610.83522705 -1528.66378784 610.09326172 C-1530.77898231 608.6949975 -1532.88836236 607.28838836 -1534.99609375 605.87890625 C-1535.94488403 605.25291283 -1535.94488403 605.25291283 -1536.9128418 604.61427307 C-1540.71000551 602.05664304 -1543.86340442 599.33859723 -1547 596 C-1543.67339607 597.62389428 -1540.44666539 599.39858299 -1537.21484375 601.203125 C-1536.0471924 601.85322379 -1534.8793791 602.50303176 -1533.71142578 603.15258789 C-1533.09752991 603.49403839 -1532.48363403 603.83548889 -1531.85113525 604.18728638 C-1496.78414923 623.66130249 -1460.94772723 641.39110339 -1424 657 C-1423.02253815 657.4131546 -1423.02253815 657.4131546 -1422.02532959 657.83465576 C-1396.57806608 668.56788616 -1370.7033361 678.17906745 -1344.48120117 686.84765625 C-1341.28824314 687.90458604 -1338.10202496 688.97910413 -1334.91796875 690.0625 C-1325.27191726 693.33121503 -1315.64017058 696.50135825 -1305.79980469 699.13452148 C-1299.62988463 700.79197756 -1293.53804503 702.66718019 -1287.4375 704.5625 C-1279.45899758 707.02806976 -1271.49928164 709.16819747 -1263.34887695 710.97680664 C-1259.09252603 711.95142536 -1254.91027506 713.12982273 -1250.71484375 714.3359375 C-1241.00978848 717.07465864 -1231.21952613 719.32616742 -1221.375 721.5 C-1219.58949307 721.89694087 -1217.80401162 722.29399638 -1216.01855469 722.69116211 C-1211.74243 723.64033132 -1207.46474872 724.58222136 -1203.18615723 725.52020264 C-1201.30302429 725.93349506 -1199.42049593 726.34954046 -1197.53808594 726.76611328 C-1168.34503581 733.20302955 -1138.79977107 738.45108938 -1109.17651367 742.453125 C-1108.50033997 742.54473907 -1107.82416626 742.63635315 -1107.12750244 742.73074341 C-1105.33996963 742.97115588 -1103.55172905 743.20629038 -1101.76342773 743.44091797 C-1098.76862722 743.88581535 -1095.81630666 744.40205704 -1092.84277344 744.96386719 C-1086.69908579 746.09574806 -1080.53585095 746.86628472 -1074.33203125 747.5859375 C-1073.12319778 747.72776962 -1071.91436432 747.86960175 -1070.66889954 748.01573181 C-1066.71749136 748.47530966 -1062.76520344 748.92673996 -1058.8125 749.375 C-1058.13462181 749.45223171 -1057.45674362 749.52946342 -1056.75832367 749.60903549 C-1029.77495169 752.67988298 -1002.77300304 754.92692675 -975.66259766 756.57373047 C-971.20938566 756.84758169 -966.7644897 757.17445255 -962.31787109 757.53955078 C-936.99574864 759.51646096 -911.64218145 759.30517386 -886.25830078 759.26074219 C-879.71041071 759.24938418 -873.1626839 759.25609493 -866.6147995 759.26762676 C-839.26460516 759.30845897 -812.01649104 759.08437205 -784.722229 757.24700928 C-780.38536598 756.95921253 -776.04695596 756.7155865 -771.7071991 756.47640991 C-727.15476039 753.9861692 -682.97058775 749.16526842 -638.86663818 742.43609619 C-636.02187296 742.00332749 -633.17636567 741.57581392 -630.33056641 741.14990234 C-625.89374116 740.48512287 -621.45839273 739.81134657 -617.02429199 739.12863159 C-615.4121807 738.88068365 -613.79980262 738.63446265 -612.18713379 738.39016724 C-591.55763723 735.24925963 -578.27071926 728.45459887 -562.75146484 714.54980469 C-558.61900387 710.893147 -554.29028875 707.46819749 -550 704 C-548.16573302 702.50114184 -546.33241048 701.00112723 -544.5 699.5 C-541.77618311 697.2700196 -539.05119199 695.04164013 -536.3203125 692.8203125 C-531.3377293 688.76203459 -526.39779658 684.65981193 -521.5 680.5 C-514.84951621 674.85159028 -508.09879436 669.33176851 -501.328125 663.828125 C-496.34402468 659.76593919 -491.40058544 655.66218057 -486.5 651.5 C-480.72441193 646.59465946 -474.87852982 641.78166128 -469 637 C-467.16620121 635.50056908 -465.33287057 634.00056542 -463.5 632.5 C-460.77618311 630.2700196 -458.05119199 628.04164013 -455.3203125 625.8203125 C-450.33772833 621.7620338 -445.39783092 617.65977201 -440.5 613.5 C-435.73078305 609.44999489 -430.92087884 605.45648144 -426.0703125 601.50390625 C-416.46557245 593.671033 -406.89933639 585.79551246 -397.46142578 577.76220703 C-393.56307761 574.45284442 -389.58645943 571.25637352 -385.578125 568.08203125 C-382.59032832 565.66915908 -379.66943803 563.18203921 -376.75 560.6875 C-372.29361056 556.88256036 -367.75831196 553.21197521 -363.125 549.625 C-357.44153739 545.21992069 -352.00766588 540.58085013 -346.60595703 535.83642578 C-341.95274676 531.77073598 -337.15950802 527.93916872 -332.26953125 524.1640625 C-327.88161331 520.75233305 -323.67551452 517.16756533 -319.5 513.5 C-314.77335447 509.34834846 -309.97979864 505.3445114 -305 501.5 C-299.26391492 497.07104605 -293.77908901 492.40392816 -288.32861328 487.62939453 C-284.14367094 483.96962142 -279.87694291 480.45078674 -275.5078125 477.01171875 C-272.53759684 474.62906911 -269.64399151 472.16142373 -266.75 469.6875 C-262.29370607 465.88244997 -257.75827696 462.2120111 -253.125 458.625 C-247.35246529 454.15015437 -241.82240828 449.44176257 -236.32910156 444.62988281 C-232.14405186 440.96987855 -227.87712474 437.45092987 -223.5078125 434.01171875 C-220.53759684 431.62906911 -217.64399151 429.16142373 -214.75 426.6875 C-210.29370607 422.88244997 -205.75827696 419.2120111 -201.125 415.625 C-195.35246529 411.15015437 -189.82240828 406.44176257 -184.32910156 401.62988281 C-180.14405186 397.96987855 -175.87712474 394.45092987 -171.5078125 391.01171875 C-168.53759684 388.62906911 -165.64399151 386.16142373 -162.75 383.6875 C-158.29370607 379.88244997 -153.75827696 376.2120111 -149.125 372.625 C-143.35246529 368.15015437 -137.82240828 363.44176257 -132.32910156 358.62988281 C-128.14897541 354.97418441 -123.88707726 351.45926017 -119.5234375 348.0234375 C-116.46622469 345.57198822 -113.48280731 343.04103776 -110.5 340.5 C-106.71110968 337.273566 -102.90140833 334.09072608 -99 331 C-95.12245536 327.92687305 -91.33097321 324.76729857 -87.5625 321.5625 C-81.76751022 316.6343039 -75.9015082 311.80035215 -70 307 C-68.16620121 305.50056908 -66.33287057 304.00056542 -64.5 302.5 C-61.77618311 300.2700196 -59.05119199 298.04164013 -56.3203125 295.8203125 C-51.3377293 291.76203459 -46.39779658 287.65981193 -41.5 283.5 C-34.84951621 277.85159028 -28.09879436 272.33176851 -21.328125 266.828125 C-16.34402468 262.76593919 -11.40058544 258.66218057 -6.5 254.5 C0.15048379 248.85159028 6.90120564 243.33176851 13.671875 237.828125 C18.67892357 233.74723571 23.64205438 229.6219631 28.5625 225.4375 C32.33097321 222.23270143 36.12245536 219.07312695 40 216 C43.99079624 212.83218302 47.91549358 209.59442085 51.8125 206.3125 C52.35197266 205.86068359 52.89144531 205.40886719 53.44726562 204.94335938 C63.09193768 196.83065021 63.09193768 196.83065021 67.56640625 185.46875 C67.52472106 143.11659334 52.96211739 99.87856375 35 62 C34.55011719 61.04657715 34.10023437 60.0931543 33.63671875 59.11083984 C25.04291405 41.04713293 14.98724725 24.03555629 3.65649414 7.55761719 C3.17688232 6.85540039 2.69727051 6.15318359 2.203125 5.4296875 C1.77676758 4.81335449 1.35041016 4.19702148 0.91113281 3.56201172 C0 2 0 2 0 0 Z " fill="#FCBF0B" transform="translate(1817,341)"/>
  <path d="M0 0 C1.53536407 0.11245056 1.53536407 0.11245056 3.10174561 0.22717285 C17.42207197 1.28180241 31.7133987 2.56224863 46 4 C46.9168457 4.09110046 47.83369141 4.18220093 48.77832031 4.27606201 C99.87052894 9.35873741 150.734684 17.08708553 200.99914551 27.58392334 C203.07253948 28.01508455 205.14697457 28.44091787 207.22167969 28.86572266 C230.74858226 33.69303802 253.95472674 39.46541763 277.14550781 45.70117188 C281.61972478 46.90217035 286.10125247 48.07317744 290.5859375 49.234375 C303.03138444 52.46634394 315.31701929 55.90547954 327.46875 60.11328125 C331.5741104 61.53186768 335.69995588 62.86591023 339.84375 64.16796875 C366.16338357 72.44847732 391.99377212 82.0170543 417.6875 92.0625 C418.78408936 92.49103271 419.88067871 92.91956543 421.01049805 93.36108398 C426.91779035 95.69770526 432.7272812 98.18491308 438.49584961 100.84545898 C440.66456009 101.8453451 442.84054715 102.82177951 445.02734375 103.78125 C475.17955134 117.02283811 504.86706745 131.07921153 533.41455078 147.52587891 C536.51407871 149.29310739 539.64433214 150.99854341 542.7800293 152.70043945 C562.58765807 163.48402008 581.69105002 175.83972069 600 189 C598.14990234 189.60791016 598.14990234 189.60791016 596 190 C593.6015625 188.2734375 593.6015625 188.2734375 591 186 C587.0749786 183.53702096 583.03543568 181.27678285 579 179 C578.12085938 178.50371094 577.24171875 178.00742188 576.3359375 177.49609375 C563.9559384 170.63286162 551.15223162 164.55992869 538.42614746 158.37277222 C537.08101517 157.71843816 535.73635278 157.06313704 534.39221191 156.4067688 C526.37514579 152.49472863 518.31694872 148.77181909 510.08959961 145.32177734 C507.08371522 144.03581463 504.13466154 142.66463754 501.1875 141.25 C491.62199174 136.78609614 481.74626229 133.03722715 471.93261719 129.15991211 C466.42563185 126.98178296 460.9249685 124.78902555 455.4453125 122.54296875 C446.19939473 118.76845879 436.8434109 115.40979036 427.39794922 112.17089844 C424.12456158 111.04292264 420.85565543 109.90281007 417.58735657 108.76020813 C398.78935871 102.19550598 380.00621705 96.01107257 360.7890625 90.77490234 C358.1857996 90.05162184 355.60021831 89.28704169 353.015625 88.5 C347.2130498 86.7402026 341.35899018 85.18464668 335.5 83.625 C322.32096518 80.11003674 322.32096518 80.11003674 317.2890625 78.64453125 C307.22570864 75.71753955 297.08217439 73.43855824 286.82373047 71.29394531 C280.26099688 69.92101762 273.72855778 68.47776644 267.2121582 66.90014648 C233.57659196 58.80798314 199.28081428 53.24162895 165.05786133 48.29956055 C161.97961163 47.85146322 158.9041298 47.38509738 155.828125 46.921875 C132.64922168 43.50400279 109.31695433 41.24079202 86 39 C84.76017365 38.88044952 84.76017365 38.88044952 83.49530029 38.75848389 C71.67656422 37.62782449 59.84851987 36.75180518 48 36 C46.9674408 35.93319031 45.93488159 35.86638062 44.87103271 35.79754639 C-26.29371721 31.23343023 -97.84361656 31.35345846 -169 36 C-169.93674561 36.06036438 -170.87349121 36.12072876 -171.83862305 36.18292236 C-182.42920541 36.87199564 -192.99641502 37.72962565 -203.55895996 38.76171875 C-206.24506945 39.02392237 -208.93161355 39.28141855 -211.61816406 39.5390625 C-242.84985995 42.55332735 -273.87256157 46.31310284 -304.80175781 51.62792969 C-309.9556129 52.5114985 -315.10631096 53.30471016 -320.29052734 53.98681641 C-336.99565026 56.19891031 -353.49172713 59.65920491 -370 63 C-370.70292175 63.14157532 -371.40584351 63.28315063 -372.13006592 63.42901611 C-389.65597263 66.96015023 -407.06653452 70.89651918 -424.4375 75.125 C-425.2860556 75.33105865 -426.13461121 75.53711731 -427.00888062 75.74942017 C-438.05167047 78.4389087 -449.02480792 81.32458288 -459.95999146 84.42242432 C-461.86551931 84.96192527 -463.77243148 85.49653014 -465.67944336 86.03076172 C-481.22199202 90.38741035 -496.66551701 94.96037202 -512 100 C-513.38733566 100.45388038 -514.77470791 100.90764894 -516.16210938 101.36132812 C-539.38826867 108.91664208 -539.38826867 108.91664208 -562.2421875 117.51171875 C-565.39218731 118.78130351 -568.57331632 119.9090979 -571.7890625 120.99975586 C-621.85700284 138.01729784 -671.57607987 162.10309365 -717 189 C-718.86135176 190.08441097 -720.72335056 191.16771196 -722.5859375 192.25 C-756.95043746 212.29349512 -790.38626215 234.53493625 -821 260 C-822.85386452 261.50037341 -824.70803454 263.00036941 -826.5625 264.5 C-831.04703785 268.16684434 -835.37528764 271.97336341 -839.65625 275.875 C-841.80692711 277.82494724 -843.98824971 279.73026129 -846.1875 281.625 C-849.35390212 284.37894493 -852.30640236 287.28504043 -855.24609375 290.27734375 C-856.9588984 291.95963073 -858.73107445 293.51103759 -860.5625 295.0625 C-869.00944395 302.35458834 -877.02907915 310.44036681 -884.23828125 318.95703125 C-886.09060206 321.10506625 -888.00808151 323.18583753 -889.93823242 325.26391602 C-903.94799879 340.36399215 -916.58385831 356.86001308 -928 374 C-928.47904785 374.71462402 -928.9580957 375.42924805 -929.45166016 376.16552734 C-955.03886564 414.45469656 -975.11438582 455.86373231 -985 501 C-985.28810547 502.25296875 -985.28810547 502.25296875 -985.58203125 503.53125 C-986.07591905 505.68347649 -986.54127202 507.84000527 -987 510 C-987.23589844 511.08023438 -987.47179687 512.16046875 -987.71484375 513.2734375 C-994.88853405 547.32169893 -995.32163034 583.70186311 -990 618 C-989.86078125 618.94182129 -989.7215625 619.88364258 -989.578125 620.85400391 C-981.69805501 673.56109239 -961.20008397 725.3306034 -930.29296875 768.85546875 C-929 771 -929 771 -929 774 C-935.9569967 766.54886148 -942.65503466 758.98624975 -949 751 C-949.48243164 750.40606445 -949.96486328 749.81212891 -950.46191406 749.20019531 C-966.19406098 729.82481438 -979.97524696 708.85987761 -992 687 C-992.35707031 686.36271973 -992.71414063 685.72543945 -993.08203125 685.06884766 C-999.08086961 674.36024716 -1004.12759862 663.25939087 -1009 652 C-1009.52335938 650.80375 -1010.04671875 649.6075 -1010.5859375 648.375 C-1019.65970434 626.71827472 -1025.84363106 604.07313524 -1030 581 C-1030.21027832 579.8759375 -1030.42055664 578.751875 -1030.63720703 577.59375 C-1036.77580328 543.68809092 -1036.03287838 507.86002935 -1030 474 C-1029.82339844 472.95908203 -1029.64679688 471.91816406 -1029.46484375 470.84570312 C-1025.441407 447.58427805 -1018.19490907 424.84294534 -1008.91894531 403.15673828 C-1008.04735246 401.11113487 -1007.20424072 399.05602142 -1006.3671875 396.99609375 C-1001.48788413 385.19147101 -995.27433801 374.10934205 -989 363 C-988.5678418 362.22978516 -988.13568359 361.45957031 -987.69042969 360.66601562 C-978.66736951 344.65527977 -968.24905362 329.52509379 -957 315 C-956.59104492 314.46632813 -956.18208984 313.93265625 -955.76074219 313.3828125 C-948.52419002 303.94430419 -940.88735753 294.89967456 -933 286 C-932.08214722 284.94752075 -932.08214722 284.94752075 -931.14575195 283.8737793 C-924.56364234 276.41819232 -917.55686589 269.404843 -910.51586914 262.38549805 C-908.43454811 260.30955574 -906.35865187 258.22829578 -904.28320312 256.14648438 C-902.93782062 254.80176248 -901.59212806 253.45735071 -900.24609375 252.11328125 C-899.63753036 251.50269363 -899.02896698 250.89210602 -898.40196228 250.26301575 C-894.09601878 245.98003884 -889.61016164 241.952312 -885 238 C-884.47816635 237.55057541 -883.9563327 237.10115082 -883.41868591 236.6381073 C-869.3491416 224.56584663 -854.9480794 212.96679284 -840 202 C-839.26990723 201.46342773 -838.53981445 200.92685547 -837.78759766 200.37402344 C-827.69815718 192.97582446 -817.47815634 185.83543261 -807 179 C-805.98123779 178.33121826 -805.98123779 178.33121826 -804.94189453 177.64892578 C-768.54277127 153.75912676 -729.81553718 131.5389709 -689.890625 114.16015625 C-686.52480428 112.69459327 -683.19787245 111.15842632 -679.8788147 109.58988953 C-670.98031394 105.38893526 -661.96403071 101.51860759 -652.875 97.75 C-652.09354614 97.42540802 -651.31209229 97.10081604 -650.50695801 96.76638794 C-628.64376382 87.69821298 -606.51798617 79.4643876 -584.1875 71.625 C-583.34723267 71.32963348 -582.50696533 71.03426697 -581.64123535 70.72994995 C-570.82386398 66.93516555 -559.9685662 63.33230233 -549 60 C-548.30286896 59.78728455 -547.60573792 59.57456909 -546.88748169 59.35540771 C-527.43465665 53.42417716 -507.95445584 47.72317386 -488.21728516 42.80615234 C-484.94665729 41.98663396 -481.6820964 41.14578969 -478.41796875 40.30078125 C-459.06034148 35.32354656 -439.56595215 31.0667308 -420 27 C-419.2866449 26.85089172 -418.57328979 26.70178345 -417.83831787 26.54815674 C-361.28708908 14.73725094 -304.13234937 7.24587015 -246.61654663 2.23022461 C-243.90318838 1.99148174 -241.19047566 1.74618567 -238.4777832 1.5 C-159.55332249 -5.61096575 -79.01996941 -5.89438684 0 0 Z " fill="#FDFDFC" transform="translate(1054,23)"/>
  <path d="M0 0 C-0.44690186 0.36649658 -0.89380371 0.73299316 -1.35424805 1.1105957 C-8.84090676 7.25381457 -16.32476028 13.39591456 -23.6875 19.6875 C-27.99775379 23.36698494 -32.39555911 26.90388568 -36.875 30.375 C-42.55824996 34.7803688 -47.99231635 39.41913426 -53.39404297 44.16357422 C-57.49670732 47.74823075 -61.68802825 51.17092654 -66 54.5 C-71.71178687 58.91185181 -77.17878637 63.55520978 -82.60986328 68.30688477 C-87.00155636 72.14661954 -91.45970481 75.8852533 -95.9921875 79.55859375 C-99.84474572 82.68567023 -103.67196859 85.8429813 -107.5 89 C-112.24029032 92.90791483 -116.9862169 96.80822049 -121.75 100.6875 C-126.26605164 104.37560884 -130.7167369 108.13614952 -135.16064453 111.91040039 C-141.26078878 117.08383725 -147.46541404 122.12685703 -153.671875 127.171875 C-158.67892357 131.25276429 -163.64205438 135.3780369 -168.5625 139.5625 C-173.11294314 143.43230426 -177.72832351 147.19959513 -182.41015625 150.91015625 C-185.46081879 153.37185226 -188.45147194 155.89811125 -191.4375 158.4375 C-198.10691559 164.10932845 -204.87822433 169.64955077 -211.671875 175.171875 C-216.59878789 179.1874514 -221.47793409 183.2493488 -226.3125 187.375 C-230.74861042 191.1578115 -235.26593162 194.80541537 -239.875 198.375 C-245.64745039 202.84996189 -251.17758426 207.5582309 -256.67089844 212.37011719 C-260.85102459 216.02581559 -265.11292274 219.54073983 -269.4765625 222.9765625 C-272.53377531 225.42801178 -275.51719269 227.95896224 -278.5 230.5 C-282.28889032 233.726434 -286.09859167 236.90927392 -290 240 C-293.87754464 243.07312695 -297.66902679 246.23270143 -301.4375 249.4375 C-308.10691559 255.10932845 -314.87822433 260.64955077 -321.671875 266.171875 C-326.67892357 270.25276429 -331.64205438 274.3780369 -336.5625 278.5625 C-341.11652443 282.43534988 -345.73494558 286.20622303 -350.421875 289.91796875 C-353.40967063 292.33084007 -356.33058962 294.81792919 -359.25 297.3125 C-363.82913406 301.22299342 -368.49400999 304.99439439 -373.25 308.6875 C-377.93113591 312.32470118 -382.43056048 316.07848811 -386.82421875 320.0625 C-390.54949145 323.37979849 -394.44478018 326.48823616 -398.31738281 329.63085938 C-401.67980643 332.36685352 -405.02738833 335.12091806 -408.375 337.875 C-409.1069458 338.47691162 -409.8388916 339.07882324 -410.59301758 339.69897461 C-414.99157599 343.3233555 -419.35344118 346.98638542 -423.6875 350.6875 C-427.99788667 354.3668375 -432.39558039 357.90383999 -436.875 361.375 C-442.64731864 365.85014118 -448.17757334 370.55822133 -453.67089844 375.37011719 C-457.85102459 379.02581559 -462.11292274 382.54073983 -466.4765625 385.9765625 C-469.53377531 388.42801178 -472.51719269 390.95896224 -475.5 393.5 C-479.28889032 396.726434 -483.09859167 399.90927392 -487 403 C-490.87754464 406.07312695 -494.66902679 409.23270143 -498.4375 412.4375 C-505.10691559 418.10932845 -511.87822433 423.64955077 -518.671875 429.171875 C-523.59878789 433.1874514 -528.47793409 437.2493488 -533.3125 441.375 C-537.74860809 445.15780951 -542.26590261 448.80545622 -546.875 452.375 C-552.55756996 456.77956543 -557.99052984 461.41806111 -563.3918457 466.16137695 C-568.06120035 470.24063836 -572.86464207 474.09752252 -577.77441406 477.88208008 C-582.8677292 481.83121317 -587.73949287 486.01506034 -592.55883789 490.29321289 C-596.78821111 494 -596.78821111 494 -599 494 C-599.61646147 475.2903944 -598.20008816 457.43681467 -595 439 C-594.80696289 437.86900879 -594.61392578 436.73801758 -594.41503906 435.57275391 C-589.22818444 406.21890421 -579.4021024 377.59585849 -566 351 C-565.49355957 349.9790625 -564.98711914 348.958125 -564.46533203 347.90625 C-553.73127222 326.33901625 -541.39552417 306.30045075 -527 287 C-526.16599233 285.86768387 -525.33260735 284.7349087 -524.5 283.6015625 C-506.96095175 259.91166747 -486.83985864 236.28551689 -464.3828125 217.1015625 C-461.75231562 214.7815505 -459.20406981 212.38621493 -456.65332031 209.97924805 C-449.98133048 203.68593424 -443.1742304 197.72012464 -436 192 C-434.80957047 191.02020313 -433.62088217 190.03828832 -432.43359375 189.0546875 C-410.79840304 171.18083036 -387.72980785 154.96628169 -364 140 C-363.2054541 139.49645996 -362.4109082 138.99291992 -361.59228516 138.47412109 C-348.88382348 130.43770621 -335.96055479 122.85203573 -322.81152344 115.56005859 C-320.15388033 114.08538514 -317.50257654 112.59982642 -314.8515625 111.11328125 C-260.63318974 80.92080581 -203.17852142 57.65641702 -144.5625 37.5625 C-143.72621063 37.27503906 -142.88992126 36.98757813 -142.02828979 36.69140625 C-129.77109019 32.48819416 -117.43895159 28.62793837 -105 25 C-103.97342285 24.6981781 -102.9468457 24.3963562 -101.88916016 24.08538818 C-84.03685633 18.84642772 -66.08193387 14.13214797 -48.02142334 9.67211914 C-45.37553022 9.01755016 -42.73078025 8.35842895 -40.08605289 7.69916821 C-36.86116176 6.89545735 -33.63568174 6.09413031 -30.41015625 5.29296875 C-29.25266373 5.00544235 -28.0951712 4.71791595 -26.90260315 4.42167664 C-24.69718566 3.87669837 -22.4907559 3.33579687 -20.28323364 2.79940796 C-17.99175546 2.2414745 -15.70309918 1.67187858 -13.41671753 1.09341431 C-12.26011627 0.8090451 -11.10351501 0.5246759 -9.91186523 0.23168945 C-8.87271469 -0.02863571 -7.83356415 -0.28896088 -6.76292419 -0.55717468 C-4.07215743 -0.98843503 -2.53837777 -0.89824418 0 0 Z " fill="#FDBF0B" transform="translate(1837,548)"/>
  <path d="M0 0 C24.54103091 9.00632008 47.90336763 26.83596412 69 42 C67.14990234 42.60791016 67.14990234 42.60791016 65 43 C62.6015625 41.2734375 62.6015625 41.2734375 60 39 C56.0749786 36.53702096 52.03543568 34.27678285 48 32 C47.12085938 31.50371094 46.24171875 31.00742188 45.3359375 30.49609375 C27.33324327 20.51574816 8.53350277 11.93853939 -10 3 C-10 2.34 -10 1.68 -10 1 C-7 1 -4 1 -1 1 C-0.67 0.67 -0.34 0.34 0 0 Z " fill="#F7F7F1" transform="translate(1585,170)"/>
  <path d="M0 0 C-0.47832275 0.39268066 -0.95664551 0.78536133 -1.44946289 1.18994141 C-3.65444065 3.00085955 -5.85847462 4.81292288 -8.0625 6.625 C-9.19075195 7.55119141 -9.19075195 7.55119141 -10.34179688 8.49609375 C-11.08623047 9.10839844 -11.83066406 9.72070312 -12.59765625 10.3515625 C-13.3364502 10.9590332 -14.07524414 11.56650391 -14.83642578 12.19238281 C-16.89960266 13.9161203 -18.91746829 15.68264898 -20.93359375 17.4609375 C-24 20 -24 20 -26 20 C-26.6875 18.1875 -26.6875 18.1875 -27 16 C-25.5625 14.25 -25.5625 14.25 -24 13 C-25.32 13.33 -26.64 13.66 -28 14 C-28 12.68 -28 11.36 -28 10 C-28.30404678 8.32774271 -28.63128912 6.65919896 -29 5 C-24.9203558 3.96402033 -20.83581059 2.94886146 -16.75 1.9375 C-15.01169922 1.49567383 -15.01169922 1.49567383 -13.23828125 1.04492188 C-12.12324219 0.77099609 -11.00820312 0.49707031 -9.859375 0.21484375 C-8.31975098 -0.17006226 -8.31975098 -0.17006226 -6.74902344 -0.56274414 C-4.0665548 -0.98941389 -2.53139144 -0.89234196 0 0 Z " fill="#F7BD0B" transform="translate(1837,548)"/>
  <path d="M0 0 C9.04529667 4.63009786 17.48410617 10.06778684 25.95800781 15.65576172 C27.83941053 16.89428436 29.72701245 18.12258193 31.6171875 19.34765625 C32.67164063 20.03730469 33.72609375 20.72695312 34.8125 21.4375 C35.72644531 22.03433594 36.64039063 22.63117188 37.58203125 23.24609375 C39.97823448 24.98421208 41.97225165 26.84935781 44 29 C41.75 29.25 41.75 29.25 39 29 C37.65950991 27.67386205 36.32736238 26.33927766 35 25 C33.18228855 23.81700206 31.3239101 22.6950542 29.4375 21.625 C28.38175781 21.02429688 27.32601563 20.42359375 26.23828125 19.8046875 C17.40702949 14.83587704 17.40702949 14.83587704 8.375 10.25 C6 9 6 9 5 7 C5.33 6.34 5.66 5.68 6 5 C5.195625 4.731875 4.39125 4.46375 3.5625 4.1875 C2.716875 3.795625 1.87125 3.40375 1 3 C0.67 2.01 0.34 1.02 0 0 Z " fill="#EFEFEA" transform="translate(1610,184)"/>
  <path d="M0 0 C0.66 0 1.32 0 2 0 C3.10986328 1.55371094 3.10986328 1.55371094 4.3203125 3.734375 C4.99453247 4.92933594 4.99453247 4.92933594 5.68237305 6.1484375 C6.15843994 7.00695312 6.63450684 7.86546875 7.125 8.75 C11.01804387 15.65379327 15.0511465 22.28057543 19.63671875 28.75 C21 31 21 31 21 34 C14.04364136 26.54954486 7.32003071 19.00537223 1 11 C0.40574219 10.31421875 -0.18851562 9.6284375 -0.80078125 8.921875 C-2 7 -2 7 -1.1875 3.25 C-0.795625 2.1775 -0.40375 1.105 0 0 Z " fill="#F5F5EF" transform="translate(104,763)"/>
  <path d="M0 0 C0 0.33 0 0.66 0 1 C-6.00471882 3.0971163 -11.41943999 3.26263514 -17.74609375 3.1953125 C-19.2627639 3.19106766 -19.2627639 3.19106766 -20.81007385 3.18673706 C-24.01933952 3.17559889 -27.22831958 3.15050597 -30.4375 3.125 C-32.62174074 3.11496198 -34.80598589 3.10583757 -36.99023438 3.09765625 C-42.32691932 3.07568043 -47.66343924 3.04226656 -53 3 C-53 2.67 -53 2.34 -53 2 C-47.70239712 1.71035354 -42.40455346 1.42576038 -37.10644531 1.14550781 C-35.31047545 1.04983405 -33.51457397 0.95286637 -31.71875 0.85449219 C-21.13242419 0.27555249 -10.60567227 -0.15891954 0 0 Z " fill="#FDF7E3" transform="translate(1099,1134)"/>
  <path d="M0 0 C14.85 0 29.7 0 45 0 C45 0.33 45 0.66 45 1 C47.64 1.33 50.28 1.66 53 2 C53 2.33 53 2.66 53 3 C41.50679453 3.17221869 30.09652627 2.62840346 18.625 2 C16.8099138 1.90330789 14.99480969 1.80695152 13.1796875 1.7109375 C8.78624264 1.47781949 4.39306363 1.24019077 0 1 C0 0.67 0 0.34 0 0 Z " fill="#E3E3E3" transform="translate(995,0)"/>
  <path d="M0 0 C0.99 0.495 0.99 0.495 2 1 C2.7019043 3.3449707 2.7019043 3.3449707 3.32421875 6.42578125 C3.54787109 7.53244141 3.77152344 8.63910156 4.00195312 9.77929688 C4.22818359 10.94525391 4.45441406 12.11121094 4.6875 13.3125 C4.92533203 14.46685547 5.16316406 15.62121094 5.40820312 16.81054688 C5.62798828 17.92107422 5.84777344 19.03160156 6.07421875 20.17578125 C6.27619873 21.19583252 6.47817871 22.21588379 6.6862793 23.2668457 C7 26 7 26 6 30 C5.01 27.03 4.02 24.06 3 21 C2.01 21.99 1.02 22.98 0 24 C-0.125 17.25 -0.125 17.25 1 15 C0.91089842 12.44192238 0.76705754 9.9237399 0.5625 7.375 C0.51029297 6.66859375 0.45808594 5.9621875 0.40429688 5.234375 C0.27458793 3.48920013 0.13795046 1.74454275 0 0 Z " fill="#EBB60A" transform="translate(1857,479)"/>
  <path d="M0 0 C1.32 0.66 2.64 1.32 4 2 C2.68 2.99 1.36 3.98 0 5 C0.33 5.66 0.66 6.32 1 7 C0.01 7.495 0.01 7.495 -1 8 C-1 8.99 -1 9.98 -1 11 C-2.093125 10.79375 -3.18625 10.5875 -4.3125 10.375 C-8.0838401 9.59653475 -8.0838401 9.59653475 -11 12 C-11.72382467 14.05925139 -11.72382467 14.05925139 -12 16 C-13.98 16 -15.96 16 -18 16 C-14.25333462 12.14044075 -10.31478678 8.63380746 -6.1875 5.1875 C-5.59001953 4.68541016 -4.99253906 4.18332031 -4.37695312 3.66601562 C-2.91971152 2.44193268 -1.46010135 1.22067038 0 0 Z " fill="#F2BB0B" transform="translate(1655,724)"/>
  <path d="M0 0 C1.02323436 1.31558703 2.01755155 2.65368175 3 4 C3.598125 4.763125 4.19625 5.52625 4.8125 6.3125 C6 9 6 9 5.3125 12.75 C4 16 4 16 2 17 C-3.04389909 10.9438305 -3.04389909 10.9438305 -2.875 7.3125 C-2.58625 6.549375 -2.2975 5.78625 -2 5 C-1.835 4.2575 -1.67 3.515 -1.5 2.75 C-1 1 -1 1 0 0 Z " fill="#F9F8F3" transform="translate(99,752)"/>
  <path d="M0 0 C1.65 0.33 3.3 0.66 5 1 C3.60652624 4.15204981 1.97514921 6.26171773 -0.4765625 8.671875 C-1.48203125 9.66767578 -1.48203125 9.66767578 -2.5078125 10.68359375 C-3.20648437 11.36550781 -3.90515625 12.04742188 -4.625 12.75 C-5.33140625 13.44738281 -6.0378125 14.14476562 -6.765625 14.86328125 C-8.50598703 16.58012488 -10.25084981 18.29211832 -12 20 C-12.66 19.67 -13.32 19.34 -14 19 C-14 18.34 -14 17.68 -14 17 C-13.34 17 -12.68 17 -12 17 C-12.33 16.01 -12.66 15.02 -13 14 C-12.01 13.67 -11.02 13.34 -10 13 C-10 12.34 -10 11.68 -10 11 C-9.01 10.67 -8.02 10.34 -7 10 C-6.34 10.33 -5.68 10.66 -5 11 C-4.896875 10.21625 -4.79375 9.4325 -4.6875 8.625 C-4 6 -4 6 -1 4 C-0.01 3.67 0.98 3.34 2 3 C2 2.34 2 1.68 2 1 C1.34 0.67 0.68 0.34 0 0 Z " fill="#ECB70A" transform="translate(1347,755)"/>
  <path d="M0 0 C0.33 0 0.66 0 1 0 C2.09858767 8.78526469 1.94610508 17.35576463 1.5625 26.1875 C1.50911411 27.53447954 1.45637575 28.88148491 1.40429688 30.22851562 C1.2758661 33.48598722 1.14096717 36.74305095 1 40 C0.34 40 -0.32 40 -1 40 C-1.02495303 35.74992247 -1.0429783 31.49988519 -1.05493164 27.24975586 C-1.05992148 25.807691 -1.06671573 24.36563109 -1.07543945 22.92358398 C-1.1208459 15.21784327 -1.08531842 7.64850379 0 0 Z " fill="#FCC625" transform="translate(61,576)"/>
  <path d="M0 0 C1.27617187 0.02320313 2.55234375 0.04640625 3.8671875 0.0703125 C5.78917969 0.09738281 5.78917969 0.09738281 7.75 0.125 C9.23113281 0.15980469 9.23113281 0.15980469 10.7421875 0.1953125 C10.7421875 1.8453125 10.7421875 3.4953125 10.7421875 5.1953125 C12.0621875 4.8653125 13.3821875 4.5353125 14.7421875 4.1953125 C13.7521875 5.6803125 13.7521875 5.6803125 12.7421875 7.1953125 C0.07248363 4.12014166 0.07248363 4.12014166 -5.2578125 2.1953125 C-3.2578125 0.1953125 -3.2578125 0.1953125 0 0 Z " fill="#E7B10A" transform="translate(489.2578125,1009.8046875)"/>
  <path d="M0 0 C0.99 0.66 1.98 1.32 3 2 C-1.29 5.63 -5.58 9.26 -10 13 C-10.66 12.67 -11.32 12.34 -12 12 C-12.625 9.9375 -12.625 9.9375 -13 8 C-11.906875 7.401875 -10.81375 6.80375 -9.6875 6.1875 C-7.05561958 4.6941594 -5.09126896 3.19583241 -3 1 C-2.01 0.67 -1.02 0.34 0 0 Z " fill="#F0B80B" transform="translate(1782,589)"/>
  <path d="M0 0 C-5.16923077 4.06153846 -5.16923077 4.06153846 -9.375 3.75 C-10.24125 3.5025 -11.1075 3.255 -12 3 C-12.33 3.99 -12.66 4.98 -13 6 C-17.51617599 6.07654536 -21.59085217 6.10228696 -26 5 C-26 4.67 -26 4.34 -26 4 C-22.42010978 3.13094278 -18.83566807 2.28237304 -15.25 1.4375 C-14.23421875 1.19064453 -13.2184375 0.94378906 -12.171875 0.68945312 C-11.1921875 0.46064453 -10.2125 0.23183594 -9.203125 -0.00390625 C-8.30239258 -0.21861572 -7.40166016 -0.4333252 -6.47363281 -0.65454102 C-3.95701536 -1.00600309 -2.38749855 -0.80151737 0 0 Z " fill="#DDAA0B" transform="translate(1837,548)"/>
  <path d="M0 0 C0.33 0.66 0.66 1.32 1 2 C2.98 1.34 4.96 0.68 7 0 C7 3 7 3 4.8125 5.26171875 C3.884375 6.06222656 2.95625 6.86273437 2 7.6875 C1.071875 8.49574219 0.14375 9.30398438 -0.8125 10.13671875 C-1.8953125 11.05904297 -1.8953125 11.05904297 -3 12 C-3.66 11.67 -4.32 11.34 -5 11 C-5 10.34 -5 9.68 -5 9 C-4.34 9 -3.68 9 -3 9 C-3.0928125 7.6078125 -3.0928125 7.6078125 -3.1875 6.1875 C-3 3 -3 3 -1.5 1.125 C-1.005 0.75375 -0.51 0.3825 0 0 Z " fill="#FBC219" transform="translate(1886,600)"/>
  <path d="M0 0 C-0.33 0.7425 -0.66 1.485 -1 2.25 C-2.22782871 5.13883312 -2.22782871 5.13883312 -2 9 C-4.64 8.67 -7.28 8.34 -10 8 C-8.68 7.01 -7.36 6.02 -6 5 C-6.66 4.67 -7.32 4.34 -8 4 C-8 4.66 -8 5.32 -8 6 C-10.97 5.505 -10.97 5.505 -14 5 C-11.56585763 3.37723842 -9.68680554 2.38255208 -7 1.375 C-6.319375 1.11460937 -5.63875 0.85421875 -4.9375 0.5859375 C-3 0 -3 0 0 0 Z " fill="#F5BA0E" transform="translate(1682,590)"/>
  <path d="M0 0 C0.33 0 0.66 0 1 0 C1.50615271 3.87422208 2.00382721 7.74948817 2.5 11.625 C2.64308594 12.71941406 2.78617187 13.81382812 2.93359375 14.94140625 C3.06894531 16.00488281 3.20429687 17.06835938 3.34375 18.1640625 C3.53227539 19.62513428 3.53227539 19.62513428 3.72460938 21.11572266 C4.00906019 24.09489105 4.04655007 27.00915797 4 30 C3.67 28.68 3.34 27.36 3 26 C2.01 26 1.02 26 0 26 C0 17.42 0 8.84 0 0 Z " fill="#E2E2E2" transform="translate(0,574)"/>
  <path d="M0 0 C4.09026749 1.46134787 7.45876097 3.46035817 11.0625 5.875 C12.08472656 6.55304688 13.10695313 7.23109375 14.16015625 7.9296875 C16.71255014 9.79044233 18.847733 11.69805496 21 14 C18.75 14.25 18.75 14.25 16 14 C15.4121875 13.40832031 14.824375 12.81664062 14.21875 12.20703125 C10.82178925 8.82801219 6.67922263 6.93656813 2.484375 4.68359375 C1.66453125 4.12800781 0.8446875 3.57242188 0 3 C0 2.01 0 1.02 0 0 Z " fill="#F0EDDD" transform="translate(1633,199)"/>
  <path d="M0 0 C3.23088493 0.60189266 5.1395087 1.64873557 7.671875 3.72265625 C8.33574219 4.26083984 8.99960938 4.79902344 9.68359375 5.35351562 C10.36550781 5.91748047 11.04742188 6.48144531 11.75 7.0625 C12.44738281 7.63033203 13.14476562 8.19816406 13.86328125 8.78320312 C15.58052188 10.18287186 17.29243295 11.58855936 19 13 C16 14 16 14 13 13 C13 12.34 13 11.68 13 11 C12.21625 10.731875 11.4325 10.46375 10.625 10.1875 C8 9 8 9 6 6 C4.68 6 3.36 6 2 6 C1.34 4.02 0.68 2.04 0 0 Z " fill="#EDB70B" transform="translate(1681,233)"/>
  <path d="M0 0 C5.28 0 10.56 0 16 0 C14 4 14 4 12 5 C10.29297265 5.06996014 8.58331997 5.08440154 6.875 5.0625 C5.96492188 5.05347656 5.05484375 5.04445313 4.1171875 5.03515625 C3.41851563 5.02355469 2.71984375 5.01195312 2 5 C2.66 4.01 3.32 3.02 4 2 C2.68 1.34 1.36 0.68 0 0 Z " fill="#FCBF08" transform="translate(1036,1098)"/>
  <path d="M0 0 C0.12375 0.639375 0.2475 1.27875 0.375 1.9375 C0.58125 2.618125 0.7875 3.29875 1 4 C1.66 4.33 2.32 4.66 3 5 C2.67 5.99 2.34 6.98 2 8 C-2.29 5.69 -6.58 3.38 -11 1 C-11 0.67 -11 0.34 -11 0 C-7.01803543 -1.05404945 -4.01804691 -0.84098656 0 0 Z " fill="#ECB60A" transform="translate(309,930)"/>
  <path d="M0 0 C0.33 0.66 0.66 1.32 1 2 C0.06421005 4.35981813 -0.93347808 6.69631264 -2 9 C-2.66 9 -3.32 9 -4 9 C-4 9.99 -4 10.98 -4 12 C-4.66 11.67 -5.32 11.34 -6 11 C-5.67 10.34 -5.34 9.68 -5 9 C-9.32371893 11.02633069 -9.32371893 11.02633069 -13 14 C-13 13.01 -13 12.02 -13 11 C-10.8763036 8.98423872 -8.77281034 7.14350625 -6.5 5.3125 C-5.87996094 4.80138672 -5.25992187 4.29027344 -4.62109375 3.76367188 C-3.08722544 2.50118027 -1.54443168 1.24954706 0 0 Z " fill="#EBB60C" transform="translate(1748,647)"/>
  <path d="M0 0 C0 1.32 0 2.64 0 4 C-3.4352048 6.29013653 -4.985331 6.17842973 -9 6 C-9.66 4.68 -10.32 3.36 -11 2 C-7.17679443 0.57741188 -4.08718695 -0.24042276 0 0 Z " fill="#F2B80B" transform="translate(1702,584)"/>
  <path d="M0 0 C-0.33 1.32 -0.66 2.64 -1 4 C-1.99 4 -2.98 4 -4 4 C-4.66 5.98 -5.32 7.96 -6 10 C-8.31 10 -10.62 10 -13 10 C-5.57142857 0 -5.57142857 0 0 0 Z " fill="#EFB90C" transform="translate(1566,800)"/>
  <path d="M0 0 C4.7539867 1.14751403 9.37892907 2.38262517 14 4 C14 4.33 14 4.66 14 5 C13.39671875 5.13277344 12.7934375 5.26554687 12.171875 5.40234375 C11.37265625 5.57894531 10.5734375 5.75554687 9.75 5.9375 C8.56664062 6.19853516 8.56664062 6.19853516 7.359375 6.46484375 C5.23121297 6.947556 3.11467158 7.46163178 1 8 C1.66 7.01 2.32 6.02 3 5 C2.2575 4.319375 2.2575 4.319375 1.5 3.625 C0 2 0 2 0 0 Z " fill="#F6BD09" transform="translate(480,1031)"/>
  <path d="M0 0 C3.98103298 4.77723958 7.46719209 9.88933687 11 15 C10.67 15.66 10.34 16.32 10 17 C8.18159615 15.06775868 6.37025532 13.12966092 4.5625 11.1875 C4.04623047 10.64029297 3.52996094 10.09308594 2.99804688 9.52929688 C0.68923395 7.03940058 -0.91358514 5.25924458 -2 2 C-1.34 2 -0.68 2 0 2 C0 1.34 0 0.68 0 0 Z " fill="#ECE9DE" transform="translate(115,780)"/>
  <path d="M0 0 C3.78730549 1.85072359 7.49571802 3.84206376 11.1875 5.875 C11.82880859 6.21402344 12.47011719 6.55304687 13.13085938 6.90234375 C17.79125331 9.49090469 17.79125331 9.49090469 18.92578125 12.2578125 C18.95027344 12.83273437 18.97476562 13.40765625 19 14 C5.13816535 5.38731597 5.13816535 5.38731597 0 1 C0 0.67 0 0.34 0 0 Z " fill="#E9B918" transform="translate(270,937)"/>
  <path d="M0 0 C0.33 0 0.66 0 1 0 C1 3.3 1 6.6 1 10 C0.21625 10.2475 -0.5675 10.495 -1.375 10.75 C-4.32317108 12.15389099 -4.9024777 13.00675737 -6 16 C-6.66 15.67 -7.32 15.34 -8 15 C-5.36 10.05 -2.72 5.1 0 0 Z " fill="#F2B909" transform="translate(1284,874)"/>
  <path d="M0 0 C0.33 1.32 0.66 2.64 1 4 C-1.64 6.31 -4.28 8.62 -7 11 C-8.1196437 7.64106891 -8.07992835 6.32285646 -7 3 C-4.46916729 0.55352838 -3.5747073 0 0 0 Z " fill="#F0B908" transform="translate(1640,706)"/>
  <path d="M0 0 C6.27 0.33 12.54 0.66 19 1 C19 1.33 19 1.66 19 2 C16.69 2 14.38 2 12 2 C12 2.99 12 3.98 12 5 C9.69 5 7.38 5 5 5 C5.66 4.34 6.32 3.68 7 3 C4.69 2.34 2.38 1.68 0 1 C0 0.67 0 0.34 0 0 Z M-1 2 C2 3 2 3 2 3 Z " fill="#FBC51D" transform="translate(1169,65)"/>
  <path d="M0 0 C0 0.99 0 1.98 0 3 C1.43990623 5.17032476 1.43990623 5.17032476 3 7 C2.01 7.495 2.01 7.495 1 8 C-1.6015625 6.56640625 -1.6015625 6.56640625 -4.625 4.5625 C-5.62789063 3.90378906 -6.63078125 3.24507812 -7.6640625 2.56640625 C-8.43492187 2.04949219 -9.20578125 1.53257812 -10 1 C-6.1496895 -1.56687367 -4.41430237 -0.83288724 0 0 Z " fill="#F8C115" transform="translate(320,964)"/>
  <path d="M0 0 C0.66 0.33 1.32 0.66 2 1 C2 5.29 2 9.58 2 14 C-1.04312545 10.19609319 -2.99886043 7.30245008 -5 3 C-3.68 3 -2.36 3 -1 3 C-0.67 2.01 -0.34 1.02 0 0 Z " fill="#FBC218" transform="translate(115,768)"/>
  <path d="M0 0 C0.33 0.99 0.66 1.98 1 3 C-1 6 -1 6 -3 7 C-2.67 7.99 -2.34 8.98 -2 10 C-4.97 10 -7.94 10 -11 10 C-7.50640535 6.40365256 -3.88901869 3.16548033 0 0 Z " fill="#EDB70D" transform="translate(1833,577)"/>
  <path d="M0 0 C0.66 0.33 1.32 0.66 2 1 C2 1.66 2 2.32 2 3 C1.34 3 0.68 3 0 3 C0 3.66 0 4.32 0 5 C0.99 5.99 1.98 6.98 3 8 C-0.3 8 -3.6 8 -7 8 C-6 4 -6 4 -2.9375 1.75 C-1.968125 1.1725 -0.99875 0.595 0 0 Z " fill="#F2B90C" transform="translate(1453,701)"/>
  <path d="M0 0 C0.33 0.99 0.66 1.98 1 3 C-0.87277322 4.42330765 -2.75284444 5.82796597 -4.68359375 7.171875 C-8.10083767 9.55292238 -11.15414602 11.9264777 -14 15 C-14.99 14.67 -15.98 14.34 -17 14 C-16.27554687 13.40832031 -15.55109375 12.81664062 -14.8046875 12.20703125 C-9.85195909 8.15900123 -4.90312066 4.10802001 0 0 Z " fill="#191005" transform="translate(1729,636)"/>
  <path d="M0 0 C-0.33 0.99 -0.66 1.98 -1 3 C-2.33333333 3.33333333 -3.66666667 3.66666667 -5 4 C-5.33 4.99 -5.66 5.98 -6 7 C-6.33 6.34 -6.66 5.68 -7 5 C-7.66 4.835 -8.32 4.67 -9 4.5 C-9.66 4.335 -10.32 4.17 -11 4 C-11.33 3.34 -11.66 2.68 -12 2 C-10.56342755 1.66269158 -9.12569907 1.33030409 -7.6875 1 C-6.88699219 0.814375 -6.08648438 0.62875 -5.26171875 0.4375 C-3 0 -3 0 0 0 Z " fill="#EAB20B" transform="translate(1779,561)"/>
  <path d="M0 0 C0.99 -0.33 1.98 -0.66 3 -1 C3 -0.34 3 0.32 3 1 C3.66 1 4.32 1 5 1 C5 1.66 5 2.32 5 3 C-0.45769811 3.11138159 -5.61509359 2.91657981 -11 2 C-11 1.67 -11 1.34 -11 1 C-4.00423729 -1.28707627 -4.00423729 -1.28707627 0 0 Z " fill="#FAC51E" transform="translate(802,1123)"/>
  <path d="M0 0 C3.34192692 0.24453124 4.60543557 0.60543557 7 3 C7.33 4.65 7.66 6.3 8 8 C4.37 6.35 0.74 4.7 -3 3 C-2.01 2.01 -1.02 1.02 0 0 Z " fill="#FCC317" transform="translate(378,999)"/>
  <path d="M0 0 C6.16356805 1.6658292 11.48259656 4.87805286 17 8 C13.90226756 8.84062397 11.21667249 9.08935201 8 9 C8 8.01 8 7.02 8 6 C5.525 5.01 5.525 5.01 3 4 C3 3.34 3 2.68 3 2 C2.01 2 1.02 2 0 2 C0 1.34 0 0.68 0 0 Z " fill="#F1BB08" transform="translate(301,955)"/>
  <path d="M0 0 C2.64 1.65 5.28 3.3 8 5 C7.67 5.99 7.34 6.98 7 8 C4.19637237 8.22732116 2.53813483 8.34081872 0.125 6.8125 C-1 5 -1 5 -0.6875 2.3125 C-0.460625 1.549375 -0.23375 0.78625 0 0 Z " fill="#F4BB10" transform="translate(1658,215)"/>
  <path d="M0 0 C0.99 0 1.98 0 3 0 C2.43867066 3.5371438 1.30442253 4.99261679 -1.4375 7.25 C-2.05496094 7.77078125 -2.67242188 8.2915625 -3.30859375 8.828125 C-5 10 -5 10 -7 10 C-6.52727227 5.74545047 -4.03562624 3.80795427 -1 1 C-0.67 0.67 -0.34 0.34 0 0 Z " fill="#FBC219" transform="translate(1373,1028)"/>
  <path d="M0 0 C0.66 0.33 1.32 0.66 2 1 C0.48328036 5.55015893 -3.16891053 7.50057264 -7 10 C-7.33 8.68 -7.66 7.36 -8 6 C-7.175 5.54625 -6.35 5.0925 -5.5 4.625 C-4.2625 3.820625 -4.2625 3.820625 -3 3 C-3 2.34 -3 1.68 -3 1 C-2.01 0.67 -1.02 0.34 0 0 Z " fill="#FBC219" transform="translate(1456,960)"/>
  <path d="M0 0 C0.66 0 1.32 0 2 0 C2 0.66 2 1.32 2 2 C2.99 2 3.98 2 5 2 C5 2.66 5 3.32 5 4 C5.78375 4.12375 6.5675 4.2475 7.375 4.375 C10 5 10 5 12 7 C11.01 7.66 10.02 8.32 9 9 C5.37 6.69 1.74 4.38 -2 2 C-1.34 1.34 -0.68 0.68 0 0 Z " fill="#FBC117" transform="translate(299,955)"/>
  <path d="M0 0 C2 3 2 3 1.75 5.5625 C1 8 1 8 -1 10 C-2.32 10 -3.64 10 -5 10 C-4.49701212 5.59885603 -2.91227269 3.28804981 0 0 Z " fill="#F5BD06" transform="translate(1326,814)"/>
  <path d="M0 0 C0.66 1.32 1.32 2.64 2 4 C-2.62 3.01 -7.24 2.02 -12 1 C-12 0.67 -12 0.34 -12 0 C-7.70682182 -0.91996675 -4.24986926 -1.25564319 0 0 Z " fill="#E3AF0A" transform="translate(552,1028)"/>
  <path d="M0 0 C-1.11666174 3.34998521 -1.74694925 3.79340222 -4.5625 5.6875 C-5.20316406 6.12449219 -5.84382813 6.56148437 -6.50390625 7.01171875 C-6.99761719 7.33785156 -7.49132813 7.66398438 -8 8 C-8.66 6.35 -9.32 4.7 -10 3 C-9.01 3 -8.02 3 -7 3 C-6.525625 2.505 -6.05125 2.01 -5.5625 1.5 C-4 0 -4 0 0 0 Z " fill="#F0B90A" transform="translate(1542,790)"/>
  <path d="M0 0 C-4.625 4 -4.625 4 -8 4 C-8 3.34 -8 2.68 -8 2 C-9.98 2 -11.96 2 -14 2 C-8.86649792 -0.7500904 -5.77621177 -1.18149786 0 0 Z " fill="#FBC520" transform="translate(632,99)"/>
  <path d="M0 0 C0.66 0.33 1.32 0.66 2 1 C2.33 1.99 2.66 2.98 3 4 C1.7625 4.4125 0.525 4.825 -0.75 5.25 C-4.30819824 6.56855219 -6.54193297 8.02983567 -9 11 C-9.99 10.67 -10.98 10.34 -12 10 C-10.82630859 9.04287109 -10.82630859 9.04287109 -9.62890625 8.06640625 C-8.61699219 7.24011719 -7.60507813 6.41382813 -6.5625 5.5625 C-5.55316406 4.73878906 -4.54382812 3.91507813 -3.50390625 3.06640625 C-1.70216039 1.58798996 -1.70216039 1.58798996 0 0 Z " fill="#FBF7E8" transform="translate(1818,664)"/>
  <path d="M0 0 C3.66161578 1.22053859 4.16270474 2.36782304 6.1875 5.5625 C6.71730469 6.38878906 7.24710938 7.21507812 7.79296875 8.06640625 C8.19128906 8.70449219 8.58960938 9.34257812 9 10 C8.01 10 7.02 10 6 10 C5.67 9.01 5.34 8.02 5 7 C4.34 7 3.68 7 3 7 C2.67 7.66 2.34 8.32 2 9 C1.34 6.03 0.68 3.06 0 0 Z " fill="#ECB70D" transform="translate(1785,334)"/>
  <path d="M0 0 C0.69222656 0.08765625 1.38445313 0.1753125 2.09765625 0.265625 C3.9375 0.75 3.9375 0.75 5.9375 2.75 C4.52316794 2.9736337 3.10582382 3.17826476 1.6875 3.375 C0.89859375 3.49101563 0.1096875 3.60703125 -0.703125 3.7265625 C-3.38402459 3.75319395 -4.78944089 3.11592084 -7.0625 1.75 C-3.88217735 -0.3702151 -3.51682601 -0.4995865 0 0 Z " fill="#FDC31C" transform="translate(705.0625,1107.25)"/>
  <path d="M0 0 C1.125 2.0625 1.125 2.0625 2 4 C1.01 4.66 0.02 5.32 -1 6 C-2.98 5.01 -4.96 4.02 -7 3 C-6.67 2.01 -6.34 1.02 -6 0 C-3.42525708 -0.99667468 -2.51072708 -1.25536354 0 0 Z " fill="#FCC21A" transform="translate(359,987)"/>
  <path d="M0 0 C0.33 0.66 0.66 1.32 1 2 C1.66 2 2.32 2 3 2 C3 3.65 3 5.3 3 7 C2.34 7 1.68 7 1 7 C1.33 7.99 1.66 8.98 2 10 C0.68 10.33 -0.64 10.66 -2 11 C-1 3.57142857 -1 3.57142857 0 0 Z " fill="#E3AE0A" transform="translate(1250,952)"/>
  <path d="M0 0 C0.66 0.66 1.32 1.32 2 2 C1.01 3.32 0.02 4.64 -1 6 C-1.66 5.67 -2.32 5.34 -3 5 C-3.33 5.99 -3.66 6.98 -4 8 C-4.66 8 -5.32 8 -6 8 C-6.66 9.32 -7.32 10.64 -8 12 C-8.66 11.34 -9.32 10.68 -10 10 C-6.7 6.7 -3.4 3.4 0 0 Z " fill="#FAC31B" transform="translate(188,322)"/>
  <path d="M0 0 C5.28 0 10.56 0 16 0 C16 0.99 16 1.98 16 3 C11.89517207 4.13314263 9.24049263 3.78328091 5.1875 2.5625 C3.72376953 2.13130859 3.72376953 2.13130859 2.23046875 1.69140625 C1.49441406 1.46324219 0.75835938 1.23507812 0 1 C0 0.67 0 0.34 0 0 Z " fill="#FBC522" transform="translate(583,1082)"/>
  <path d="M0 0 C0.33 0.99 0.66 1.98 1 3 C-3.625 7.875 -3.625 7.875 -7 9 C-7.33 8.01 -7.66 7.02 -8 6 C-5.36 4.02 -2.72 2.04 0 0 Z " fill="#F2BA0D" transform="translate(1414,924)"/>
  <path d="M0 0 C0.33 0.99 0.66 1.98 1 3 C0.07421875 4.82421875 0.07421875 4.82421875 -1.3125 6.6875 C-1.76238281 7.31011719 -2.21226563 7.93273437 -2.67578125 8.57421875 C-3.11277344 9.04472656 -3.54976562 9.51523437 -4 10 C-4.66 10 -5.32 10 -6 10 C-6 9.34 -6 8.68 -6 8 C-6.66 7.67 -7.32 7.34 -8 7 C-5.36 4.69 -2.72 2.38 0 0 Z " fill="#F0BA0D" transform="translate(1475,873)"/>
  <path d="M0 0 C0.33 0.66 0.66 1.32 1 2 C-0.47169811 5.73584906 -0.47169811 5.73584906 -3 7 C-3 7.99 -3 8.98 -3 10 C-5.97 9.505 -5.97 9.505 -9 9 C-6 6 -3 3 0 0 Z " fill="#EBB70C" transform="translate(1713,676)"/>
  <path d="M0 0 C0.33 1.32 0.66 2.64 1 4 C-0.625 5.5625 -0.625 5.5625 -3 7 C-6.25 6.6875 -6.25 6.6875 -9 6 C-6.11964908 3.75972706 -3.15133488 1.83827868 0 0 Z M-10 8 C-8 9 -8 9 -8 9 Z " fill="#EDB80D" transform="translate(1513,664)"/>
  <path d="M0 0 C0.33 0.99 0.66 1.98 1 3 C1.66 3.33 2.32 3.66 3 4 C0.03 5.65 -2.94 7.3 -6 9 C-4.90810185 3.54050926 -4.31208438 2.98528919 0 0 Z " fill="#F1BA0B" transform="translate(1464,665)"/>
  <path d="M0 0 C0.99 0.66 1.98 1.32 3 2 C1.66667905 5.99996286 -0.4957827 6.83782337 -4 9 C-4.66 8.67 -5.32 8.34 -6 8 C-4.02 5.36 -2.04 2.72 0 0 Z " fill="#ECB50B" transform="translate(1315,828)"/>
  <path d="M0 0 C0 3.52032428 -0.70351351 4.4385343 -3 7 C-3.66 7 -4.32 7 -5 7 C-4.67 7.99 -4.34 8.98 -4 10 C-6.31 10.33 -8.62 10.66 -11 11 C-7.33333333 7.33333333 -3.66666667 3.66666667 0 0 Z " fill="#151006" transform="translate(1379,732)"/>
  <path d="M0 0 C0.609375 1.84375 0.609375 1.84375 1 4 C-0.75 6.5 -0.75 6.5 -3 9 C-4.00573778 10.32901064 -5.00795408 11.66073801 -6 13 C-6.71484375 11.296875 -6.71484375 11.296875 -7 9 C-5.56640625 6.640625 -5.56640625 6.640625 -3.5625 4.25 C-2.57443359 3.05117188 -2.57443359 3.05117188 -1.56640625 1.828125 C-1.04949219 1.22484375 -0.53257813 0.6215625 0 0 Z " fill="#FBF7EB" transform="translate(1905,587)"/>
  <path d="M0 0 C2.29576678 2.29576678 3.0638375 3.90346249 4 7 C3.625 9.8125 3.625 9.8125 3 12 C2.34 12 1.68 12 1 12 C1 10.68 1 9.36 1 8 C0.34 7.67 -0.32 7.34 -1 7 C-1 3 -1 3 0 0 Z " fill="#EAB50B" transform="translate(1843,432)"/>
  <path d="M0 0 C0.33 0.99 0.66 1.98 1 3 C-2 5 -2 5 -4 6 C-4 6.66 -4 7.32 -4 8 C-6.97 7.505 -6.97 7.505 -10 7 C-6.76478258 4.51137122 -3.40739705 2.24578442 0 0 Z " fill="#ECB60A" transform="translate(1239,1068)"/>
  <path d="M0 0 C0.66 0.33 1.32 0.66 2 1 C1.67 1.33 1.34 1.66 1 2 C1.66 2.66 2.32 3.32 3 4 C0 6 0 6 -2.5625 6.4375 C-5.35426675 6.78821951 -5.35426675 6.78821951 -7 10 C-7.33 9.01 -7.66 8.02 -8 7 C-5.36 4.69 -2.72 2.38 0 0 Z " fill="#E9B60C" transform="translate(1349,977)"/>
  <path d="M0 0 C0.33 1.32 0.66 2.64 1 4 C0.01 4.33 -0.98 4.66 -2 5 C-1.67 6.32 -1.34 7.64 -1 9 C-1.99 9.66 -2.98 10.32 -4 11 C-4.99 10.67 -5.98 10.34 -7 10 C-3.535 5.05 -3.535 5.05 0 0 Z " fill="#EEB80D" transform="translate(1305,842)"/>
  <path d="M0 0 C0.66 0.66 1.32 1.32 2 2 C1.67 2.99 1.34 3.98 1 5 C-2.3 5.66 -5.6 6.32 -9 7 C-6.24479785 4.04070881 -3.53372712 1.96318174 0 0 Z " fill="#140E04" transform="translate(1437,688)"/>
  <path d="M0 0 C1.32 0.66 2.64 1.32 4 2 C3.34 2 2.68 2 2 2 C2.33 2.99 2.66 3.98 3 5 C-0.37817425 5.84454356 -2.67465243 6.10844919 -6 5 C-4.02 3.35 -2.04 1.7 0 0 Z " fill="#FCFAF1" transform="translate(1828,656)"/>
  <path d="M0 0 C0.33 0.99 0.66 1.98 1 3 C1.99 3.33 2.98 3.66 4 4 C3.01 5.485 3.01 5.485 2 7 C2 6.01 2 5.02 2 4 C1.34 4 0.68 4 0 4 C-0.33 5.32 -0.66 6.64 -1 8 C-2.32 8 -3.64 8 -5 8 C-3.62845496 5.04590299 -2.01136276 2.55991624 0 0 Z " fill="#FAC117" transform="translate(156,356)"/>
  <path d="M0 0 C-0.875 3.875 -0.875 3.875 -2 5 C-3.66617115 5.04063832 -5.33388095 5.042721 -7 5 C-6.01 4.67 -5.02 4.34 -4 4 C-4 3.34 -4 2.68 -4 2 C-5.32 1.34 -6.64 0.68 -8 0 C-5.13822943 -1.43088528 -3.06624227 -0.59991697 0 0 Z " fill="#FDC31B" transform="translate(608,105)"/>
  <path d="M0 0 C2.31 0 4.62 0 7 0 C7 0.66 7 1.32 7 2 C8.98 2 10.96 2 13 2 C13.33 2.66 13.66 3.32 14 4 C10.30962722 5.37095624 8.29116165 4.60010967 4.75 3.0625 C3.85796875 2.68222656 2.9659375 2.30195312 2.046875 1.91015625 C1.37140625 1.60980469 0.6959375 1.30945313 0 1 C0 0.67 0 0.34 0 0 Z " fill="#E3AF0A" transform="translate(401,980)"/>
  <path d="M0 0 C0.66 0.66 1.32 1.32 2 2 C1.67 2.66 1.34 3.32 1 4 C1.66 4.33 2.32 4.66 3 5 C0 7 0 7 -4 7 C-3.6875 4.625 -3.6875 4.625 -3 2 C-2.01 1.34 -1.02 0.68 0 0 Z " fill="#F1B90B" transform="translate(1380,952)"/>
  <path d="M0 0 C1.32 0.33 2.64 0.66 4 1 C3.67 3.31 3.34 5.62 3 8 C2.34 8 1.68 8 1 8 C0.34 9.32 -0.32 10.64 -1 12 C-1.33 10.02 -1.66 8.04 -2 6 C-0.68 5.34 0.64 4.68 2 4 C1.34 2.68 0.68 1.36 0 0 Z " fill="#FCC31A" transform="translate(75,680)"/>
  <path d="M0 0 C1.37432457 3.81756824 0.67975039 7.07255329 0 11 C-1.65 10.67 -3.3 10.34 -5 10 C-3.66511872 6.40608886 -2.03977277 3.24509304 0 0 Z " fill="#ECB608" transform="translate(1883,532)"/>
  <path d="M0 0 C0.99 0.33 1.98 0.66 3 1 C2.07544441 2.508013 1.1349253 4.00624917 0.1875 5.5 C-0.33457031 6.3353125 -0.85664063 7.170625 -1.39453125 8.03125 C-1.92433594 8.6809375 -2.45414063 9.330625 -3 10 C-3.99 10 -4.98 10 -6 10 C-5.67 9.01 -5.34 8.02 -5 7 C-4.34 6.67 -3.68 6.34 -3 6 C-1.95191959 4.02477154 -0.9479589 2.02518491 0 0 Z " fill="#FAF9EC" transform="translate(136,377)"/>
  <path d="M0 0 C-4.455 2.97 -4.455 2.97 -9 6 C-9.66 5.34 -10.32 4.68 -11 4 C-10.01 4 -9.02 4 -8 4 C-8 3.01 -8 2.02 -8 1 C-8.66 0.67 -9.32 0.34 -10 0 C-6.05523353 -0.80688405 -4.00001715 -1.00000429 0 0 Z " fill="#FBC31C" transform="translate(755,74)"/>
  <path d="M0 0 C1.60332791 -0.08121924 3.20784026 -0.13929134 4.8125 -0.1875 C6.15248047 -0.23970703 6.15248047 -0.23970703 7.51953125 -0.29296875 C10.41647515 0.04918998 11.22555028 0.75393573 13 3 C9.57056481 4.18771723 7.62215325 3.80226223 4.25 2.5625 C3.45078125 2.27503906 2.6515625 1.98757813 1.828125 1.69140625 C1.22484375 1.46324219 0.6215625 1.23507812 0 1 C0 0.67 0 0.34 0 0 Z " fill="#FCC31F" transform="translate(538,1068)"/>
  <path d="M0 0 C0.33 0 0.66 0 1 0 C1 2.31 1 4.62 1 7 C2.98 5.68 4.96 4.36 7 3 C6.45773019 6.79588866 4.79872437 8.47211993 2 11 C-0.67927341 6.98108988 -0.15601248 4.75838077 0 0 Z " fill="#201808" transform="translate(1237,1035)"/>
  <path d="M0 0 C3.57416264 0.49641148 6.69252492 1.58251068 10 3 C10 3.33 10 3.66 10 4 C6.7 4 3.4 4 0 4 C-0.33 3.01 -0.66 2.02 -1 1 C-0.67 0.67 -0.34 0.34 0 0 Z " fill="#F0B90C" transform="translate(400,1002)"/>
  <path d="M0 0 C0.66 0.33 1.32 0.66 2 1 C0.68 3.31 -0.64 5.62 -2 8 C-3.65 7.67 -5.3 7.34 -7 7 C-4.66666667 4.66666667 -2.33333333 2.33333333 0 0 Z " fill="#FCF7E8" transform="translate(1413,999)"/>
  <path d="M0 0 C0.66 0 1.32 0 2 0 C2.12375 0.639375 2.2475 1.27875 2.375 1.9375 C2.684375 2.9584375 2.684375 2.9584375 3 4 C3.66 4.33 4.32 4.66 5 5 C4.67 5.99 4.34 6.98 4 8 C1.03 6.02 -1.94 4.04 -5 2 C-4.34 1.67 -3.68 1.34 -3 1 C-2.34 1.33 -1.68 1.66 -1 2 C-0.67 1.34 -0.34 0.68 0 0 Z " fill="#E7B409" transform="translate(245,893)"/>
  <path d="M0 0 C0.99 0.33 1.98 0.66 3 1 C0.14723863 3.93200474 -2.65079784 6.64315404 -6 9 C-5.40072174 5.64404172 -4.15377564 3.62198774 -2 1 C-1.34 1.33 -0.68 1.66 0 2 C0 1.34 0 0.68 0 0 Z " fill="#FCC21B" transform="translate(1697,761)"/>
  <path d="M0 0 C1.98 0 3.96 0 6 0 C4.66667905 3.99996286 2.5042173 4.83782337 -1 7 C-0.67 4.69 -0.34 2.38 0 0 Z " fill="#EEB60B" transform="translate(1825,551)"/>
  <path d="M0 0 C6.625 -0.25 6.625 -0.25 10 2 C10 2.99 10 3.98 10 5 C6.33118845 4.29445932 3.29549466 2.72264494 0 1 C0 0.67 0 0.34 0 0 Z " fill="#F5F2E1" transform="translate(1623,196)"/>
  <path d="M0 0 C0.99 0 1.98 0 3 0 C3.33 1.32 3.66 2.64 4 4 C0.72814447 5.07310858 -1.42947592 4.89263102 -4.75 4.0625 C-5.54921875 3.86785156 -6.3484375 3.67320313 -7.171875 3.47265625 C-7.77515625 3.31667969 -8.3784375 3.16070313 -9 3 C-9 2.67 -9 2.34 -9 2 C-7.329375 2.061875 -7.329375 2.061875 -5.625 2.125 C-1.95633975 2.41121859 -1.95633975 2.41121859 0 0 Z " fill="#FDC421" transform="translate(659,1097)"/>
  <path d="M0 0 C0.99 0.33 1.98 0.66 3 1 C2.67 2.32 2.34 3.64 2 5 C0.35 5.33 -1.3 5.66 -3 6 C-2.625 3.5625 -2.625 3.5625 -2 1 C-1.34 0.67 -0.68 0.34 0 0 Z " fill="#F0B909" transform="translate(1406,898)"/>
  <path d="M0 0 C0.66 0 1.32 0 2 0 C2 1.98 2 3.96 2 6 C1.01 5.67 0.02 5.34 -1 5 C-1 5.66 -1 6.32 -1 7 C-2.65 7.66 -4.3 8.32 -6 9 C-5.05016642 7.49460339 -4.08988109 5.99579653 -3.125 4.5 C-2.59132813 3.6646875 -2.05765625 2.829375 -1.5078125 1.96875 C-0.76144531 0.99421875 -0.76144531 0.99421875 0 0 Z " fill="#150F03" transform="translate(1292,825)"/>
  <path d="M0 0 C0.33 0.99 0.66 1.98 1 3 C0.67 3.66 0.34 4.32 0 5 C-1.32 4.67 -2.64 4.34 -4 4 C-4.33 4.99 -4.66 5.98 -5 7 C-6.32 6.67 -7.64 6.34 -9 6 C-7.8803014 4.99406757 -6.7540588 3.9954151 -5.625 3 C-4.68527344 2.1646875 -4.68527344 2.1646875 -3.7265625 1.3125 C-2 0 -2 0 0 0 Z " fill="#EAB50A" transform="translate(1611,762)"/>
  <path d="M0 0 C0.66 0.33 1.32 0.66 2 1 C2 1.99 2 2.98 2 4 C0.68 3.67 -0.64 3.34 -2 3 C-2.66 4.65 -3.32 6.3 -4 8 C-5.32 7.34 -6.64 6.68 -8 6 C-5.36 4.02 -2.72 2.04 0 0 Z " fill="#EEB90C" transform="translate(1842,570)"/>
  <path d="M0 0 C0.66 0.33 1.32 0.66 2 1 C2.625 3.0625 2.625 3.0625 3 5 C1.68 5.99 0.36 6.98 -1 8 C-1 7.01 -1 6.02 -1 5 C-1.99 5.33 -2.98 5.66 -4 6 C-4 4 -4 4 -2 1.875 C-1.34 1.25625 -0.68 0.6375 0 0 Z " fill="#FBC31C" transform="translate(1327,1064)"/>
  <path d="M0 0 C0.33 0.66 0.66 1.32 1 2 C0.67 2.99 0.34 3.98 0 5 C-0.66 5 -1.32 5 -2 5 C-2 5.66 -2 6.32 -2 7 C-3.65 7.33 -5.3 7.66 -7 8 C-5.50902342 4.2047869 -3.24299151 2.38957269 0 0 Z " fill="#EEBA0B" transform="translate(1336,988)"/>
  <path d="M0 0 C0.99 0.99 1.98 1.98 3 3 C2.34 4.65 1.68 6.3 1 8 C-0.32 7.67 -1.64 7.34 -3 7 C-3 5.02 -3 3.04 -3 1 C-2.01 1.495 -2.01 1.495 -1 2 C-0.67 1.34 -0.34 0.68 0 0 Z " fill="#EBB109" transform="translate(1244,991)"/>
  <path d="M0 0 C1.32 0 2.64 0 4 0 C4.66 0.99 5.32 1.98 6 3 C8.05003955 4.19232613 8.05003955 4.19232613 10 5 C7.39517051 5.94721072 5.69325299 6.30222393 3.109375 5.17578125 C1.37417127 4.17063275 -0.31640423 3.0893855 -2 2 C-1.34 1.34 -0.68 0.68 0 0 Z " fill="#FBC214" transform="translate(328,973)"/>
  <path d="M0 0 C0.33 0.66 0.66 1.32 1 2 C0.67 2.66 0.34 3.32 0 4 C1.32 4.66 2.64 5.32 4 6 C2.68 7.32 1.36 8.64 0 10 C-1 9 -1 9 -1.1328125 7.1875 C-1.13023438 6.465625 -1.12765625 5.74375 -1.125 5 C-1.12757812 4.278125 -1.13015625 3.55625 -1.1328125 2.8125 C-1 1 -1 1 0 0 Z " fill="#F0B90C" transform="translate(1316,785)"/>
  <path d="M0 0 C0.66 0.99 1.32 1.98 2 3 C-2.75 7.875 -2.75 7.875 -5 9 C-5.33 7.68 -5.66 6.36 -6 5 C-4.02 3.35 -2.04 1.7 0 0 Z " fill="#ECB60C" transform="translate(1620,753)"/>
  <path d="M0 0 C0.33 0.66 0.66 1.32 1 2 C0.525625 2.5775 0.05125 3.155 -0.4375 3.75 C-1.9484867 5.92582084 -2.54036151 7.42602448 -3 10 C-3.99 9.01 -4.98 8.02 -6 7 C-4.60667426 3.63279613 -3.0210714 2.0140476 0 0 Z " fill="#EEBA09" transform="translate(1665,716)"/>
  <path d="M0 0 C0.66 0.33 1.32 0.66 2 1 C0.2053617 4.58927659 -2.79646287 6.68019725 -6 9 C-6.33 8.01 -6.66 7.02 -7 6 C-4.69 4.02 -2.38 2.04 0 0 Z " fill="#FBF8E9" transform="translate(1394,1015)"/>
  <path d="M0 0 C0.66 0.33 1.32 0.66 2 1 C1.67 1.99 1.34 2.98 1 4 C0.34 4 -0.32 4 -1 4 C-1.33 4.99 -1.66 5.98 -2 7 C-4.0625 7.6875 -4.0625 7.6875 -6 8 C-6 5 -6 5 -4.6875 3.61328125 C-3.125 2.40885417 -1.5625 1.20442708 0 0 Z " fill="#FAF9E9" transform="translate(1673,784)"/>
  <path d="M0 0 C0.66 0.33 1.32 0.66 2 1 C1.7452486 2.31571603 1.47065859 3.62760376 1.1875 4.9375 C1.03667969 5.66839844 0.88585937 6.39929688 0.73046875 7.15234375 C0.48941406 7.76207031 0.24835938 8.37179687 0 9 C-0.99 9.33 -1.98 9.66 -3 10 C-2.39009109 6.44219804 -1.4216319 3.3171411 0 0 Z " fill="#FBC425" transform="translate(82,478)"/>
  <path d="M0 0 C0.66 0 1.32 0 2 0 C2 0.66 2 1.32 2 2 C2.66 2 3.32 2 4 2 C3.67 2.99 3.34 3.98 3 5 C-1.455 4.01 -1.455 4.01 -6 3 C-4.68 2.34 -3.36 1.68 -2 1 C-1.67 1.33 -1.34 1.66 -1 2 C-0.67 1.34 -0.34 0.68 0 0 Z " fill="#FBC524" transform="translate(604,1084)"/>
  <path d="M0 0 C2.97 0.99 5.94 1.98 9 3 C8.67 3.66 8.34 4.32 8 5 C5.125 4.75 5.125 4.75 2 4 C1.34 2.68 0.68 1.36 0 0 Z " fill="#FBF8EB" transform="translate(459,1040)"/>
  <path d="M0 0 C1.32 0.33 2.64 0.66 4 1 C4.33 2.98 4.66 4.96 5 7 C-0.875 4.25 -0.875 4.25 -2 2 C-1.34 2 -0.68 2 0 2 C0 1.34 0 0.68 0 0 Z " fill="#EFB90C" transform="translate(291,922)"/>
  <path d="M0 0 C-1.36983503 3.16115776 -1.9890638 3.9927092 -5 6 C-5.33 4.02 -5.66 2.04 -6 0 C-3.50907189 -1.24546405 -2.58919267 -0.7767578 0 0 Z " fill="#EEB70A" transform="translate(1457,860)"/>
  <path d="M0 0 C1.65 0.33 3.3 0.66 5 1 C2.31158141 3.25245881 0.35358125 4.88213958 -3 6 C-3.33 5.34 -3.66 4.68 -4 4 C-3.67 3.34 -3.34 2.68 -3 2 C-2.01 2 -1.02 2 0 2 C0 1.34 0 0.68 0 0 Z " fill="#120B05" transform="translate(1491,673)"/>
  <path d="M0 0 C0.33 0.99 0.66 1.98 1 3 C0.34 3 -0.32 3 -1 3 C-1.33 3.66 -1.66 4.32 -2 5 C-3.65 5 -5.3 5 -7 5 C-7.33 4.34 -7.66 3.68 -8 3 C-2.25 0 -2.25 0 0 0 Z " fill="#181204" transform="translate(1562,617)"/>
  <path d="M0 0 C0.66 0.33 1.32 0.66 2 1 C0.68 3.31 -0.64 5.62 -2 8 C-3.65 7.67 -5.3 7.34 -7 7 C-4.66666667 4.66666667 -2.33333333 2.33333333 0 0 Z " fill="#150F05" transform="translate(1811,568)"/>
  <path d="M0 0 C0.66 0.66 1.32 1.32 2 2 C1.875 5.5 1.875 5.5 1 9 C-0.98 9.99 -0.98 9.99 -3 11 C-2.01 7.37 -1.02 3.74 0 0 Z " fill="#FBC82C" transform="translate(78,488)"/>
  <path d="M0 0 C1.65 0 3.3 0 5 0 C4.814375 0.763125 4.62875 1.52625 4.4375 2.3125 C3.77180827 5.08967375 3.77180827 5.08967375 5 8 C4.01 8.495 4.01 8.495 3 9 C2.01 6.03 1.02 3.06 0 0 Z " fill="#EFB80B" transform="translate(1857,412)"/>
  <path d="M0 0 C-0.99 1.485 -0.99 1.485 -2 3 C-4.6015625 3.29296875 -4.6015625 3.29296875 -7.625 3.1875 C-9.12933594 3.14689453 -9.12933594 3.14689453 -10.6640625 3.10546875 C-11.43492188 3.07066406 -12.20578125 3.03585938 -13 3 C-8.16353702 -0.22430866 -5.73060016 -0.09242903 0 0 Z " fill="#FDC624" transform="translate(1114,59)"/>
  <path d="M0 0 C4.62 0 9.24 0 14 0 C14 0.99 14 1.98 14 3 C12.35 3.33 10.7 3.66 9 4 C9.33 3.34 9.66 2.68 10 2 C6.7 1.67 3.4 1.34 0 1 C0 0.67 0 0.34 0 0 Z " fill="#FCCB37" transform="translate(885,58)"/>
  <path d="M0 0 C5.28 0 10.56 0 16 0 C15.01 1.485 15.01 1.485 14 3 C13.01 2.67 12.02 2.34 11 2 C9.10787263 1.77820215 7.21115528 1.59385985 5.3125 1.4375 C4.31863281 1.35371094 3.32476563 1.26992187 2.30078125 1.18359375 C1.16189453 1.09271484 1.16189453 1.09271484 0 1 C0 0.67 0 0.34 0 0 Z " fill="#C39509" transform="translate(1036,1098)"/>
  <path d="M0 0 C5.75 1.875 5.75 1.875 8 3 C8 3.66 8 4.32 8 5 C6.02 5 4.04 5 2 5 C2 4.01 2 3.02 2 2 C1.34 2 0.68 2 0 2 C0 1.34 0 0.68 0 0 Z " fill="#EEB80C" transform="translate(373,990)"/>
  <path d="M0 0 C0.66 0.33 1.32 0.66 2 1 C0.625 3 0.625 3 -1 5 C-1.66 5 -2.32 5 -3 5 C-3 5.66 -3 6.32 -3 7 C-4.65 7.33 -6.3 7.66 -8 8 C-5.33333333 5.33333333 -2.66666667 2.66666667 0 0 Z " fill="#FAF7E7" transform="translate(1731,736)"/>
  <path d="M0 0 C0 0.99 0 1.98 0 3 C-0.639375 3.268125 -1.27875 3.53625 -1.9375 3.8125 C-4.33131686 4.88667752 -4.33131686 4.88667752 -5 8 C-6.32 7.67 -7.64 7.34 -9 7 C-6.03 4.69 -3.06 2.38 0 0 Z " fill="#180F07" transform="translate(1663,691)"/>
  <path d="M0 0 C0.33 0.66 0.66 1.32 1 2 C0.34 2 -0.32 2 -1 2 C-0.67 3.32 -0.34 4.64 0 6 C-0.99 6.495 -0.99 6.495 -2 7 C-4.625 6.0625 -4.625 6.0625 -7 5 C-2.25 1.125 -2.25 1.125 0 0 Z " fill="#E7B30A" transform="translate(1499,672)"/>
  <path d="M0 0 C2.97 0.495 2.97 0.495 6 1 C4.3545622 2.68762851 2.68711423 4.3540349 1 6 C0.67 6 0.34 6 0 6 C0 4.02 0 2.04 0 0 Z " fill="#FBC317" transform="translate(1874,612)"/>
  <path d="M0 0 C1 3 1 3 -0.1875 6.0625 C-2 9 -2 9 -6 11 C-4.02 7.37 -2.04 3.74 0 0 Z " fill="#F9C314" transform="translate(114,414)"/>
  <path d="M0 0 C5.35048061 0.37328935 7.50912907 1.9957657 11 6 C8.75 6.25 8.75 6.25 6 6 C3.8125 4.125 3.8125 4.125 2 2 C1.34 1.34 0.68 0.68 0 0 Z " fill="#EDDEA9" transform="translate(1643,207)"/>
  <path d="M0 0 C0.99 0.33 1.98 0.66 3 1 C2.67 1.99 2.34 2.98 2 4 C3.32 4.33 4.64 4.66 6 5 C2.7 5.33 -0.6 5.66 -4 6 C-3.01 5.34 -2.02 4.68 -1 4 C-0.27617533 1.94074861 -0.27617533 1.94074861 0 0 Z " fill="#FBC72C" transform="translate(1233,1114)"/>
  <path d="M0 0 C2.97 0.495 2.97 0.495 6 1 C5.01 2.485 5.01 2.485 4 4 C2.35 3.67 0.7 3.34 -1 3 C-0.67 2.01 -0.34 1.02 0 0 Z M-2 4 C1 5 1 5 1 5 Z " fill="#EEB60B" transform="translate(570,1057)"/>
  <path d="M0 0 C-0.99 0.33 -1.98 0.66 -3 1 C-3 1.99 -3 2.98 -3 4 C-5.31 3.34 -7.62 2.68 -10 2 C-6.80505194 -1.19494806 -4.22040044 -1.35655728 0 0 Z " fill="#FAC41B" transform="translate(502,1051)"/>
  <path d="M0 0 C2.97 0.99 5.94 1.98 9 3 C9 3.33 9 3.66 9 4 C6.1875 4.6875 6.1875 4.6875 3 5 C1.125 3.6875 1.125 3.6875 0 2 C0 1.34 0 0.68 0 0 Z " fill="#EAB60B" transform="translate(389,997)"/>
  <path d="M0 0 C0.99 0 1.98 0 3 0 C3 0.66 3 1.32 3 2 C4.32 1.67 5.64 1.34 7 1 C7.66 1.99 8.32 2.98 9 4 C6 5 6 5 2.8125 3.5625 C1.884375 3.046875 0.95625 2.53125 0 2 C0 1.34 0 0.68 0 0 Z " fill="#E3B00B" transform="translate(348,955)"/>
  <path d="M0 0 C0.33 0.99 0.66 1.98 1 3 C-0.75 5.0625 -0.75 5.0625 -3 7 C-4.32 6.67 -5.64 6.34 -7 6 C-4.69 4.02 -2.38 2.04 0 0 Z " fill="#140D04" transform="translate(1347,952)"/>
  <path d="M0 0 C-0.66 1.65 -1.32 3.3 -2 5 C-2.66 5 -3.32 5 -4 5 C-4.33 5.66 -4.66 6.32 -5 7 C-5.99 6.34 -6.98 5.68 -8 5 C-2.25 0 -2.25 0 0 0 Z " fill="#EDB70C" transform="translate(1391,944)"/>
  <path d="M0 0 C2 0.6875 2 0.6875 4 2.6875 C3.34 2.6875 2.68 2.6875 2 2.6875 C2 3.3475 2 4.0075 2 4.6875 C-2.875 2.9375 -2.875 2.9375 -4 0.6875 C-2 -0.3125 -2 -0.3125 0 0 Z " fill="#231A05" transform="translate(267,931.3125)"/>
  <path d="M0 0 C0.66 0.33 1.32 0.66 2 1 C1.67 1.99 1.34 2.98 1 4 C-0.32796291 4.35412344 -1.66216607 4.68521554 -3 5 C-4.73026102 6.47890069 -4.73026102 6.47890069 -6 8 C-6 5 -6 5 -4.6875 3.61328125 C-3.125 2.40885417 -1.5625 1.20442708 0 0 Z " fill="#FBF9F2" transform="translate(1503,925)"/>
  <path d="M0 0 C0.99 0.33 1.98 0.66 3 1 C1.10595266 4.34243648 0.05908409 4.97997149 -3.6875 6.25 C-5.3271875 6.62125 -5.3271875 6.62125 -7 7 C-4.66666667 4.66666667 -2.33333333 2.33333333 0 0 Z " fill="#F9F7E7" transform="translate(1551,885)"/>
  <path d="M0 0 C0.66 0.99 1.32 1.98 2 3 C1.319375 3.61875 1.319375 3.61875 0.625 4.25 C-1.05950374 6.06408095 -1.99265971 7.75285627 -3 10 C-3.66 9.67 -4.32 9.34 -5 9 C-3.35 6.03 -1.7 3.06 0 0 Z " fill="#E6B50A" transform="translate(1281,880)"/>
  <path d="M0 0 C0.33 1.32 0.66 2.64 1 4 C-0.8125 5.0625 -0.8125 5.0625 -3 6 C-3.99 5.67 -4.98 5.34 -6 5 C-4.02 3.35 -2.04 1.7 0 0 Z " fill="#EAB70A" transform="translate(1514,841)"/>
  <path d="M0 0 C2.4375 0.8125 2.4375 0.8125 5 2 C5.33 2.99 5.66 3.98 6 5 C4.68 5 3.36 5 2 5 C0.25 3 0.25 3 -1 1 C-0.67 0.67 -0.34 0.34 0 0 Z " fill="#EDB70B" transform="translate(172,840)"/>
  <path d="M0 0 C1.9375 0.3125 1.9375 0.3125 4 1 C4.33 1.99 4.66 2.98 5 4 C3.35 4.33 1.7 4.66 0 5 C-0.33 4.01 -0.66 3.02 -1 2 C-0.67 1.34 -0.34 0.68 0 0 Z " fill="#FAF9F5" transform="translate(107,771)"/>
  <path d="M0 0 C0.99 0.33 1.98 0.66 3 1 C3 1.66 3 2.32 3 3 C2.34 3 1.68 3 1 3 C-0.37310707 4.29233607 -1.71034824 5.62437146 -3 7 C-3.66 6.01 -4.32 5.02 -5 4 C-2.6875 1.9375 -2.6875 1.9375 0 0 Z " fill="#FCF9F0" transform="translate(1741,728)"/>
  <path d="M0 0 C0.33 1.32 0.66 2.64 1 4 C-5.625 7.125 -5.625 7.125 -9 6 C-6.03 4.02 -3.06 2.04 0 0 Z " fill="#E9B60A" transform="translate(1468,691)"/>
  <path d="M0 0 C0.33 0.99 0.66 1.98 1 3 C-0.25 5.1875 -0.25 5.1875 -2 7 C-2.99 7 -3.98 7 -5 7 C-5 6.01 -5 5.02 -5 4 C-2.5 1.8125 -2.5 1.8125 0 0 Z " fill="#FBFAEF" transform="translate(1874,618)"/>
  <path d="M0 0 C0.66 0.33 1.32 0.66 2 1 C0.35 2.98 -1.3 4.96 -3 7 C-4.32 6.67 -5.64 6.34 -7 6 C-4.69 4.02 -2.38 2.04 0 0 Z " fill="#EBB709" transform="translate(1811,595)"/>
  <path d="M0 0 C0.66 0.33 1.32 0.66 2 1 C1.3125 2.875 1.3125 2.875 0 5 C-2.5 6.125 -2.5 6.125 -5 7 C-5.66 7.66 -6.32 8.32 -7 9 C-7 6 -7 6 -5.46875 4.39453125 C-4.49421875 3.61142578 -4.49421875 3.61142578 -3.5 2.8125 C-2.8503125 2.28269531 -2.200625 1.75289062 -1.53125 1.20703125 C-1.0259375 0.80871094 -0.520625 0.41039062 0 0 Z " fill="#E6B407" transform="translate(1875,542)"/>
  <path d="M0 0 C2.31 0.66 4.62 1.32 7 2 C6.67 3.65 6.34 5.3 6 7 C1.125 2.25 1.125 2.25 0 0 Z " fill="#140D05" transform="translate(1788,336)"/>
  <path d="M0 0 C0.33 0.66 0.66 1.32 1 2 C1.99 2 2.98 2 4 2 C3.67 3.32 3.34 4.64 3 6 C1.0625 5.6875 1.0625 5.6875 -1 5 C-1.33 4.01 -1.66 3.02 -2 2 C-1.34 1.34 -0.68 0.68 0 0 Z " fill="#FBC419" transform="translate(225,288)"/>
  <path d="M0 0 C3.36591866 1.44253657 5.51047079 3.33264727 8 6 C6.02 6 4.04 6 2 6 C1.34 4.02 0.68 2.04 0 0 Z " fill="#EFB908" transform="translate(1703,250)"/>
  <path d="M0 0 C-1.8125 2 -1.8125 2 -4 4 C-4.99 4 -5.98 4 -7 4 C-7.33 3.01 -7.66 2.02 -8 1 C-2.25 -1.125 -2.25 -1.125 0 0 Z " fill="#FBC41E" transform="translate(544,123)"/>
  <path d="M0 0 C0 2.62113708 -0.31292445 4.50935112 -1 7 C-2.65 7 -4.3 7 -6 7 C-4.02 4.69 -2.04 2.38 0 0 Z " fill="#D7A90C" transform="translate(1354,783)"/>
  <path d="M0 0 C0.66 0.33 1.32 0.66 2 1 C0.35 2.98 -1.3 4.96 -3 7 C-4.32 6.67 -5.64 6.34 -7 6 C-4.69 4.02 -2.38 2.04 0 0 Z " fill="#E9B60C" transform="translate(1402,739)"/>
  <path d="M0 0 C0.99 0.99 1.98 1.98 3 3 C2.01 3.66 1.02 4.32 0 5 C-0.33 5.66 -0.66 6.32 -1 7 C-1.99 6.34 -2.98 5.68 -4 5 C-2.25 1.125 -2.25 1.125 0 0 Z " fill="#FDC315" transform="translate(1845,374)"/>
  <path d="M0 0 C0.99 0 1.98 0 3 0 C2.34 1.65 1.68 3.3 1 5 C-0.32 5 -1.64 5 -3 5 C-1.125 1.125 -1.125 1.125 0 0 Z " fill="#FBC217" transform="translate(149,365)"/>
  <path d="M0 0 C0.33 0.99 0.66 1.98 1 3 C-0.98 3.66 -2.96 4.32 -5 5 C-5.66 4.34 -6.32 3.68 -7 3 C-4.69 2.01 -2.38 1.02 0 0 Z " fill="#FCC31E" transform="translate(422,168)"/>
  <path d="M0 0 C2.64 0.66 5.28 1.32 8 2 C7 4 7 4 5.125 4.8125 C3 5 3 5 1.25 3.6875 C0 2 0 2 0 0 Z " fill="#E3AE0A" transform="translate(480,1031)"/>
  <path d="M0 0 C2.88575819 0.39803561 3.82189513 0.79009069 5.75 3.0625 C6.1625 3.701875 6.575 4.34125 7 5 C6.01 5.495 6.01 5.495 5 6 C2.375 4.75 2.375 4.75 0 3 C0 2.01 0 1.02 0 0 Z " fill="#FCC521" transform="translate(316,966)"/>
  <path d="M0 0 C1.0625 1.875 1.0625 1.875 2 4 C1.67 4.66 1.34 5.32 1 6 C-1.97 5.505 -1.97 5.505 -5 5 C-3.35 3.35 -1.7 1.7 0 0 Z " fill="#EBB60A" transform="translate(1429,911)"/>
  <path d="M0 0 C0.33 0.99 0.66 1.98 1 3 C0.01 3.33 -0.98 3.66 -2 4 C-2.33 4.66 -2.66 5.32 -3 6 C-4.32 5.67 -5.64 5.34 -7 5 C-2.25 0 -2.25 0 0 0 Z " fill="#0F0905" transform="translate(1442,875)"/>
  <path d="M0 0 C0.33 0.66 0.66 1.32 1 2 C-0.125 4.625 -0.125 4.625 -2 7 C-4.6875 7.3125 -4.6875 7.3125 -7 7 C-4.66666667 4.66666667 -2.33333333 2.33333333 0 0 Z " fill="#FBF7EA" transform="translate(1586,856)"/>
  <path d="M0 0 C0.66 0.99 1.32 1.98 2 3 C-0.91765 4.9451 -2.62537285 5.45276317 -6 6 C-2.25 1.125 -2.25 1.125 0 0 Z " fill="#E5B30E" transform="translate(1369,769)"/>
  <path d="M0 0 C0.66 0 1.32 0 2 0 C2.33 1.32 2.66 2.64 3 4 C2.01 3.67 1.02 3.34 0 3 C-0.33 3.99 -0.66 4.98 -1 6 C-1.99 5.01 -2.98 4.02 -4 3 C-2.68 2.67 -1.36 2.34 0 2 C0 1.34 0 0.68 0 0 Z " fill="#F1EFE5" transform="translate(107,768)"/>
  <path d="M0 0 C0.66 0.33 1.32 0.66 2 1 C0.01180815 3.98228777 -1.57646413 5.78519695 -5 7 C-5.66 6.67 -6.32 6.34 -7 6 C-4.69 4.02 -2.38 2.04 0 0 Z " fill="#171006" transform="translate(1579,760)"/>
  <path d="M0 0 C0.33 0.66 0.66 1.32 1 2 C0.34 1.67 -0.32 1.34 -1 1 C-0.67 0.67 -0.34 0.34 0 0 Z M-4 3 C-3.34 3.33 -2.68 3.66 -2 4 C-3.65 5.65 -5.3 7.3 -7 9 C-7.66 8.34 -8.32 7.68 -9 7 C-7.35 5.68 -5.7 4.36 -4 3 Z " fill="#FAF8E7" transform="translate(1775,700)"/>
  <path d="M0 0 C0.99 0.33 1.98 0.66 3 1 C1.35 2.65 -0.3 4.3 -2 6 C-2.66 5.34 -3.32 4.68 -4 4 C-2.68 2.68 -1.36 1.36 0 0 Z " fill="#110B05" transform="translate(1684,697)"/>
  <path d="M0 0 C0.99 0.99 1.98 1.98 3 3 C0.69 3.66 -1.62 4.32 -4 5 C-4.33 4.34 -4.66 3.68 -5 3 C-3.35 2.01 -1.7 1.02 0 0 Z " fill="#ECB70C" transform="translate(1648,577)"/>
  <path d="M0 0 C0.66 0.33 1.32 0.66 2 1 C2 1.99 2 2.98 2 4 C1.34 4 0.68 4 0 4 C-0.33 4.99 -0.66 5.98 -1 7 C-1.99 6.67 -2.98 6.34 -4 6 C-2.68 4.02 -1.36 2.04 0 0 Z " fill="#FAC21A" transform="translate(131,388)"/>
  <path d="M0 0 C0.66 0.33 1.32 0.66 2 1 C1.67 1.99 1.34 2.98 1 4 C0.34 4 -0.32 4 -1 4 C-1 4.66 -1 5.32 -1 6 C-2.65 6 -4.3 6 -6 6 C-4 4 -2 2 0 0 Z " fill="#FBC520" transform="translate(254,265)"/>
  <path d="M0 0 C2.31 0.66 4.62 1.32 7 2 C4.38058783 3.74627478 2.96175123 4.38722388 0 5 C0 3.35 0 1.7 0 0 Z " fill="#FCC318" transform="translate(1265,1107)"/>
  <path d="M0 0 C1.65 0.33 3.3 0.66 5 1 C5.33 1.99 5.66 2.98 6 4 C3.69 3.67 1.38 3.34 -1 3 C-0.67 2.01 -0.34 1.02 0 0 Z " fill="#EDB608" transform="translate(547,1051)"/>
  <path d="M0 0 C0.66 0 1.32 0 2 0 C2.99 1.98 3.98 3.96 5 6 C2.69 5.34 0.38 4.68 -2 4 C-1.34 3.67 -0.68 3.34 0 3 C0 2.01 0 1.02 0 0 Z " fill="#FBC316" transform="translate(458,1035)"/>
  <path d="M0 0 C0 3 0 3 -1 6 C-3.0625 6.6875 -3.0625 6.6875 -5 7 C-5 6.01 -5 5.02 -5 4 C-2.5 1.8125 -2.5 1.8125 0 0 Z " fill="#FAFAF0" transform="translate(1566,873)"/>
  <path d="M0 0 C0.66 0.33 1.32 0.66 2 1 C1 4 1 4 -2 6 C-4.1875 5.625 -4.1875 5.625 -6 5 C-4.02 3.35 -2.04 1.7 0 0 Z " fill="#FBF7E6" transform="translate(1575,865)"/>
  <path d="M0 0 C-1.65 1.65 -3.3 3.3 -5 5 C-5.33 3.35 -5.66 1.7 -6 0 C-3.50907189 -1.24546405 -2.58919267 -0.7767578 0 0 Z " fill="#EAB609" transform="translate(1304,811)"/>
  <path d="M0 0 C0.99 0.33 1.98 0.66 3 1 C2.67 2.32 2.34 3.64 2 5 C1.01 5 0.02 5 -1 5 C-1.33 4.01 -1.66 3.02 -2 2 C-1.34 2 -0.68 2 0 2 C0 1.34 0 0.68 0 0 Z " fill="#EEB90C" transform="translate(1580,754)"/>
  <path d="M0 0 C0.66 0.33 1.32 0.66 2 1 C1.34 2.65 0.68 4.3 0 6 C-1.98 6 -3.96 6 -6 6 C-4 4 -2 2 0 0 Z " fill="#E6B50A" transform="translate(1643,734)"/>
  <path d="M0 0 C1.32 0.66 2.64 1.32 4 2 C2.35 3.32 0.7 4.64 -1 6 C-1.66 5.01 -2.32 4.02 -3 3 C-2.01 2.01 -1.02 1.02 0 0 Z " fill="#0F0A05" transform="translate(1396,718)"/>
  <path d="M0 0 C0.33 0.99 0.66 1.98 1 3 C0.34 3.66 -0.32 4.32 -1 5 C-1.99 5 -2.98 5 -4 5 C-4 3.68 -4 2.36 -4 1 C-2 0 -2 0 0 0 Z " fill="#0D0A03" transform="translate(1693,690)"/>
  <path d="M0 0 C0.33 1.32 0.66 2.64 1 4 C-1.31 4.66 -3.62 5.32 -6 6 C-4.75453595 2.26360784 -3.36595047 1.81243487 0 0 Z " fill="#EFB80C" transform="translate(1481,683)"/>
  <path d="M0 0 C0.99 0.33 1.98 0.66 3 1 C3 1.66 3 2.32 3 3 C-1.455 3.495 -1.455 3.495 -6 4 C-4.03617993 2.49440461 -2.21736634 1.10868317 0 0 Z " fill="#211705" transform="translate(1532,631)"/>
  <path d="M0 0 C1.3921875 0.3403125 1.3921875 0.3403125 2.8125 0.6875 C1.125 2.25 1.125 2.25 -1.1875 3.6875 C-3.9375 3.375 -3.9375 3.375 -6.1875 2.6875 C-4.14987265 -0.14253799 -3.59070275 -0.35202968 0 0 Z " fill="#F0B70A" transform="translate(1566.1875,612.3125)"/>
  <path d="M0 0 C-0.66 1.32 -1.32 2.64 -2 4 C-4.97 3.505 -4.97 3.505 -8 3 C-5.36657694 0.36657694 -3.69534435 0 0 0 Z " fill="#DDAC0A" transform="translate(1682,590)"/>
  <path d="M0 0 C0 0.66 0 1.32 0 2 C-3.21451269 3.60725635 -6.43612536 3.05748185 -10 3 C-6.41600853 0.61067235 -4.26804999 0 0 0 Z " fill="#DAA60B" transform="translate(1742,571)"/>
  <path d="M0 0 C2.34058637 2.12780579 3.70700306 4.11562221 5 7 C4.34 7.66 3.68 8.32 3 9 C3 8.01 3 7.02 3 6 C2.01 5.67 1.02 5.34 0 5 C0 3.35 0 1.7 0 0 Z " fill="#FCC31B" transform="translate(1869,408)"/>
  <path d="M0 0 C0.33 0 0.66 0 1 0 C1.125 2.375 1.125 2.375 1 5 C0.34 5.66 -0.32 6.32 -1 7 C-1.99 6.67 -2.98 6.34 -4 6 C-2.69593116 3.98079663 -1.36176581 1.98075027 0 0 Z " fill="#FBC41A" transform="translate(123,400)"/>
  <path d="M0 0 C2.99332739 0.9977758 3.94766315 1.7522025 6 4 C5.34 4.66 4.68 5.32 4 6 C2.35 4.35 0.7 2.7 -1 1 C-0.67 0.67 -0.34 0.34 0 0 Z " fill="#120D05" transform="translate(1697,242)"/>
  <path d="M0 0 C3 2 3 2 3.6875 5.125 C3.790625 6.07375 3.89375 7.0225 4 8 C1.525 7.01 1.525 7.01 -1 6 C-0.67 4.02 -0.34 2.04 0 0 Z " fill="#F2C11C" transform="translate(1658,215)"/>
  <path d="M0 0 C2.97 0.33 5.94 0.66 9 1 C5.5647952 3.29013653 4.014669 3.17842973 0 3 C0 2.01 0 1.02 0 0 Z " fill="#FDC320" transform="translate(1295,84)"/>
  <path d="M0 0 C2 1 2 1 3 3 C2.34 3.66 1.68 4.32 1 5 C-1.475 4.01 -1.475 4.01 -4 3 C-2.68 2.01 -1.36 1.02 0 0 Z " fill="#130F05" transform="translate(412,1002)"/>
  <path d="M0 0 C0.99 0.33 1.98 0.66 3 1 C0.03 3.475 0.03 3.475 -3 6 C-3.33 5.34 -3.66 4.68 -4 4 C-3.34 3.01 -2.68 2.02 -2 1 C-1.34 1.33 -0.68 1.66 0 2 C0 1.34 0 0.68 0 0 Z " fill="#F9C41A" transform="translate(1421,990)"/>
  <path d="M0 0 C2.91517292 1.07401108 4.77810176 1.77810176 7 4 C6.01 4.495 6.01 4.495 5 5 C2.375 4.0625 2.375 4.0625 0 3 C0 2.01 0 1.02 0 0 Z " fill="#FBF6E4" transform="translate(300,959)"/>
  <path d="M0 0 C1.32 0.66 2.64 1.32 4 2 C2.625 4 2.625 4 1 6 C0.34 6 -0.32 6 -1 6 C-0.67 4.02 -0.34 2.04 0 0 Z " fill="#FAC216" transform="translate(1461,954)"/>
  <path d="M0 0 C0.66 0.66 1.32 1.32 2 2 C1.625 4.625 1.625 4.625 1 7 C0.01 7.33 -0.98 7.66 -2 8 C-1.34 5.36 -0.68 2.72 0 0 Z " fill="#D5A30C" transform="translate(1258,928)"/>
  <path d="M0 0 C2 3 2 3 1.625 5.1875 C1.41875 5.785625 1.2125 6.38375 1 7 C-0.32 6.67 -1.64 6.34 -3 6 C-2.01 4.02 -1.02 2.04 0 0 Z " fill="#EEB610" transform="translate(1326,814)"/>
  <path d="M0 0 C-0.3125 1.9375 -0.3125 1.9375 -1 4 C-1.99 4.33 -2.98 4.66 -4 5 C-4.66 4.34 -5.32 3.68 -6 3 C-2.25 0 -2.25 0 0 0 Z " fill="#FAC31B" transform="translate(1658,795)"/>
  <path d="M0 0 C0.66 0.33 1.32 0.66 2 1 C0.63016497 4.16115776 0.0109362 4.9927092 -3 7 C-3.33 5.68 -3.66 4.36 -4 3 C-3.01 3.33 -2.02 3.66 -1 4 C-0.67 2.68 -0.34 1.36 0 0 Z " fill="#DFAF09" transform="translate(1343,762)"/>
  <path d="M0 0 C0.33 1.32 0.66 2.64 1 4 C0.01 4.33 -0.98 4.66 -2 5 C-2.66 4.34 -3.32 3.68 -4 3 C-2.68 2.01 -1.36 1.02 0 0 Z M-4 5 C-2 6 -2 6 -2 6 Z " fill="#ECB70C" transform="translate(1692,694)"/>
  <path d="M0 0 C0.33 1.32 0.66 2.64 1 4 C-1.31 4.66 -3.62 5.32 -6 6 C-4 4 -2 2 0 0 Z " fill="#1B1106" transform="translate(1683,674)"/>
  <path d="M0 0 C0 0.99 0 1.98 0 3 C-1.75 4.0625 -1.75 4.0625 -4 5 C-5.32 4.67 -6.64 4.34 -8 4 C-5.36 2.68 -2.72 1.36 0 0 Z " fill="#E9B406" transform="translate(1528,656)"/>
  <path d="M0 0 C0.33 0.66 0.66 1.32 1 2 C0.01 3.32 -0.98 4.64 -2 6 C-3.32 5.67 -4.64 5.34 -6 5 C-4.02 3.35 -2.04 1.7 0 0 Z " fill="#EDBA0C" transform="translate(1757,640)"/>
  <path d="M0 0 C0.99 0.66 1.98 1.32 3 2 C1.6875 3.5 1.6875 3.5 0 5 C-0.99 5 -1.98 5 -3 5 C-2.625 3.0625 -2.625 3.0625 -2 1 C-1.34 0.67 -0.68 0.34 0 0 Z " fill="#FBF8EA" transform="translate(109,417)"/>
  <path d="M0 0 C3 2 3 2 3.6875 4.625 C3.790625 5.40875 3.89375 6.1925 4 7 C2.0625 6.1875 2.0625 6.1875 0 5 C-0.33 4.01 -0.66 3.02 -1 2 C-0.67 1.34 -0.34 0.68 0 0 Z " fill="#FBF7EC" transform="translate(1858,387)"/>
  <path d="M0 0 C-0.33 1.98 -0.66 3.96 -1 6 C-1.61875 5.2884375 -1.61875 5.2884375 -2.25 4.5625 C-4.182185 2.83733482 -5.48192275 2.43415125 -8 2 C-2.25 0 -2.25 0 0 0 Z " fill="#FAC41F" transform="translate(503,136)"/>
</svg>
